<svg width="402" height="193" viewBox="0 0 402 193" fill="none" xmlns="http://www.w3.org/2000/svg">
<path fill-rule="evenodd" clip-rule="evenodd" d="M191.769 34.3797C253.786 30.143 318.674 -21.5267 372.096 10.3094C425.102 41.898 419.45 119.948 435.469 179.609C450.495 235.575 475.163 290.491 462.504 347.041C449.125 406.804 411.476 457.851 364.424 496.966C314.927 538.113 254.998 583.938 191.769 572.105C129.256 560.406 102.934 487.407 60.3833 440.066C28.3912 404.472 -11.7614 375.523 -26.0131 329.806C-40.1663 284.405 -25.9048 237.657 -17.2961 190.882C-7.17519 135.891 -16.2488 67.2584 28.4681 33.784C73.1648 0.324762 136.098 38.1827 191.769 34.3797Z" fill="#CDC1FF"/>
</svg>
