<svg width="330" height="362" viewBox="0 0 330 362" fill="none" xmlns="http://www.w3.org/2000/svg">
<g clip-path="url(#clip0_502_1079)">
<path d="M138.604 285.496H79.6614C71.086 285.496 64.134 278.544 64.134 269.968V162.362C64.134 153.787 71.086 146.835 79.6614 146.835H138.604C147.179 146.835 154.131 153.787 154.131 162.362V269.968C154.131 278.544 147.179 285.496 138.604 285.496Z" fill="white"/>
<g opacity="0.35">
<path d="M134.052 272.808H84.2133C76.962 272.808 71.0835 266.93 71.0835 259.678V168.694C71.0835 161.443 76.962 155.564 84.2133 155.564H134.052C141.303 155.564 147.18 161.443 147.18 168.694V259.678C147.18 266.93 141.302 272.808 134.052 272.808Z" fill="black"/>
</g>
<path d="M85.808 171.176C85.707 170.91 85.5175 170.504 85.3404 170.16C85.1609 169.801 84.9627 169.444 84.7557 169.09C84.3467 168.378 83.8867 167.694 83.4054 167.018C82.4292 165.679 81.3046 164.445 80.0529 163.349C79.4394 162.78 78.7587 162.306 78.0817 161.811C77.7351 161.578 77.3698 161.378 77.0132 161.156L76.4721 160.833L75.9048 160.562C74.4124 159.763 72.7655 159.324 71.091 158.938L71.025 158.923C70.606 158.825 70.3455 158.409 70.4427 157.99C70.53 157.61 70.8853 157.359 71.2631 157.389C73.1046 157.54 74.9922 157.771 76.7763 158.415L77.4546 158.631L78.1104 158.904C78.5443 159.092 78.9906 159.266 79.4182 159.472C80.2573 159.915 81.1126 160.351 81.8981 160.891C83.4977 161.934 84.9838 163.159 86.3216 164.533C86.9837 165.226 87.6283 165.941 88.2255 166.704C88.5259 167.083 88.8189 167.471 89.0995 167.873C89.39 168.288 89.6418 168.659 89.9435 169.186L89.9585 169.212C90.5918 170.316 90.2103 171.723 89.1057 172.357C88.0023 172.99 86.5934 172.609 85.9613 171.504C85.9027 171.402 85.8491 171.284 85.8067 171.178" fill="black"/>
<path d="M138.604 287.792H79.6615C69.8332 287.792 61.8389 279.796 61.8389 269.968V162.363C61.8389 152.534 69.8344 144.54 79.6615 144.54H138.604C148.432 144.54 156.427 152.536 156.427 162.363V269.968C156.427 279.796 148.431 287.792 138.604 287.792ZM79.6615 149.132C72.3654 149.132 66.4295 155.068 66.4295 162.364V269.969C66.4295 277.265 72.3654 283.201 79.6615 283.201H138.604C145.9 283.201 151.836 277.265 151.836 269.969V162.364C151.836 155.068 145.9 149.132 138.604 149.132H79.6615Z" fill="black"/>
<path d="M247.739 188.986C229.93 198.297 216.595 204.011 206.861 207.52C190.377 213.453 184.242 213.056 184.242 213.056L173.895 159.628C173.895 159.628 215.05 150.615 245.858 130.47C260.395 120.968 272.31 127.864 275.808 140.44C279.727 154.528 273.09 175.735 247.738 188.986" fill="white"/>
<g opacity="0.35">
<path d="M247.739 188.986C229.93 198.297 216.595 204.011 206.861 207.52L206.854 207.514C206.854 207.514 205.995 191.164 202.172 174.712C201.919 173.621 203.347 172.965 204.004 173.871C205.934 176.538 208.433 180.376 210.366 184.681C212.393 189.194 217.581 191.361 222.183 189.542C238.892 182.936 272.819 166.438 275.808 140.441C279.728 154.529 273.09 175.736 247.738 188.987" fill="black"/>
</g>
<path d="M240.235 194.806C240.101 194.806 239.965 194.793 239.828 194.764C238.762 194.541 238.078 193.495 238.301 192.429C241.561 176.837 238.922 164.545 230.456 155.894C224.105 149.405 216.643 147.449 216.568 147.43C215.514 147.162 214.874 146.09 215.14 145.034C215.406 143.979 216.475 143.338 217.53 143.602C217.873 143.689 226.004 145.786 233.137 152.993C239.705 159.63 246.603 172 242.164 193.238C241.969 194.168 241.149 194.808 240.234 194.808L240.235 194.806Z" fill="black"/>
<path d="M184.506 215.034C184.288 215.034 184.16 215.027 184.111 215.024C183.216 214.965 182.473 214.311 182.302 213.429L171.959 160.002C171.756 158.951 172.428 157.929 173.474 157.7C173.881 157.61 214.641 148.526 244.779 128.815C252.865 123.529 260.961 122.609 267.575 126.227C274.608 130.075 278.918 138.68 278.824 148.687C278.668 165.223 267.388 180.942 248.654 190.734C204.233 213.953 187.268 215.034 184.505 215.034H184.506ZM176.194 161.114L185.853 211.005C190.727 210.539 208.176 207.44 246.828 187.237C264.25 178.13 274.737 163.705 274.879 148.649C274.96 140.103 271.435 132.838 265.683 129.689C260.406 126.803 253.75 127.666 246.941 132.118C219.921 149.787 184.65 159.06 176.195 161.113L176.194 161.114Z" fill="black"/>
<path d="M266.466 322.737C263.311 332.702 253.823 342.619 239.696 346.671C228.314 349.93 219.471 349.283 212.867 347.192C203.602 344.268 197.018 336.033 195.802 326.393L192.108 297.155C191.375 291.402 188.676 286.084 184.467 282.104L167.252 265.838C162.864 268.973 157.025 270.853 157.025 270.853C152.287 297.51 142.172 318.051 142.172 318.051C149.337 322.037 153.838 326.947 155.824 331.975C160.893 344.763 149.768 358.323 125.235 359.444C112.084 360.051 102.279 358.52 95.185 356.402C85.8878 353.636 80.3122 344.162 82.3769 334.685L101.09 248.748C100.317 242.993 99.8629 237.49 99.651 232.27C99.4403 227.151 99.4739 222.314 99.6647 217.788C100.595 196.442 105.24 182.076 106.447 178.658C106.625 178.137 106.731 177.873 106.731 177.873V152.634H201.36L202.066 175.055C206.916 191.855 207.239 207.711 206.705 217.794C206.349 224.65 205.589 228.833 205.589 228.833C207.279 229.56 208.91 230.318 210.473 231.097C255.52 253.545 249.806 297.043 249.806 297.043C265.392 299.808 270.096 311.302 266.467 322.737" fill="white"/>
<g opacity="0.35">
<path d="M125.232 359.445C112.081 360.052 102.277 358.521 95.1826 356.403C85.8854 353.637 80.3098 344.163 82.3745 334.686L101.087 248.749C95.9805 210.768 104.717 183.543 106.445 178.66L107.059 178.205C107.059 178.205 103.371 214.207 107.092 258.799L91.0196 334.65C89.9598 339.656 93.1055 344.581 98.0901 345.737C115.228 349.711 151.458 355.205 155.821 331.976C160.889 344.764 149.764 358.324 125.231 359.445" fill="black"/>
</g>
<g opacity="0.35">
<path d="M266.466 322.738C263.311 332.702 253.823 342.619 239.696 346.671C228.314 349.93 219.471 349.283 212.867 347.192C203.602 344.268 197.018 336.033 195.802 326.393L192.108 297.155C191.375 291.403 188.676 286.084 184.466 282.104L167.252 265.839C167.252 265.839 172.405 262.055 176.776 257.553C177.527 256.778 178.838 257.23 178.952 258.302C179.13 259.993 179.188 262.198 178.644 263.997C178.272 265.233 178.658 266.564 179.663 267.373C183.879 270.766 193.751 279.027 196.773 284.342C199.34 288.855 202.89 311.712 204.995 326.651C205.68 331.541 211.738 333.421 215.083 329.786C224.513 319.537 240.382 305.8 254.278 310.683C261.715 313.303 265.153 317.883 266.467 322.739" fill="black"/>
</g>
<g opacity="0.35">
<path d="M206.512 232.271H200.289L200.349 236.508C200.435 242.064 196.225 246.728 190.814 247.349C190.465 247.387 190.108 247.413 189.738 247.421L139.755 248.122C139.424 248.128 139.101 248.108 138.785 248.089C138.679 248.075 138.574 248.069 138.474 248.057C138.244 248.031 138.013 248.004 137.789 247.963C137.69 247.943 137.59 247.931 137.492 247.911C137.195 247.851 136.898 247.779 136.602 247.693C136.529 247.674 136.463 247.647 136.391 247.62C136.16 247.547 135.936 247.468 135.718 247.382C135.612 247.344 135.507 247.302 135.407 247.256C135.203 247.17 135.005 247.078 134.806 246.98C134.727 246.933 134.642 246.901 134.556 246.855C134.299 246.716 134.041 246.564 133.796 246.406C133.71 246.354 133.632 246.286 133.546 246.234C133.374 246.116 133.209 245.997 133.045 245.865C132.946 245.791 132.854 245.72 132.76 245.647C132.602 245.508 132.444 245.37 132.285 245.224C132.219 245.158 132.141 245.092 132.075 245.026C131.87 244.828 131.686 244.624 131.501 244.412C131.409 244.306 131.323 244.202 131.244 244.096C131.138 243.97 131.034 243.838 130.934 243.706C130.848 243.581 130.762 243.461 130.677 243.343C130.591 243.204 130.505 243.072 130.42 242.934C130.282 242.703 130.15 242.459 130.024 242.221C129.978 242.122 129.925 242.03 129.879 241.931C129.873 241.918 129.865 241.899 129.859 241.884C129.727 241.601 129.609 241.31 129.503 241.02C129.483 240.968 129.456 240.914 129.436 240.862C129.331 240.544 129.232 240.215 129.152 239.884C129.146 239.852 129.139 239.824 129.126 239.792C128.954 239.06 128.855 238.295 128.842 237.509L128.762 231.921C128.069 232.145 127.331 232.27 126.558 232.27H99.6486C99.4379 227.15 99.4703 222.313 99.6623 217.788H126.558C127.257 217.788 127.93 217.892 128.57 218.077L128.471 210.912C128.465 210.561 128.478 210.218 128.504 209.876C128.518 209.763 128.536 209.644 128.55 209.531C128.576 209.307 128.602 209.083 128.642 208.864C128.662 208.732 128.695 208.601 128.722 208.475C128.768 208.278 128.814 208.08 128.867 207.882C128.907 207.751 128.947 207.619 128.985 207.493C129.051 207.302 129.111 207.118 129.183 206.933C129.23 206.807 129.282 206.683 129.336 206.557C129.415 206.372 129.5 206.188 129.592 206.009C129.645 205.897 129.705 205.779 129.764 205.666C129.87 205.476 129.983 205.284 130.101 205.093C130.153 205.007 130.207 204.915 130.266 204.829C130.628 204.281 131.037 203.774 131.492 203.305L131.691 203.107C131.855 202.942 132.027 202.784 132.199 202.631C132.292 202.551 132.384 202.486 132.476 202.406C132.634 202.274 132.799 202.149 132.971 202.023C133.077 201.951 133.176 201.879 133.282 201.813C133.454 201.7 133.624 201.588 133.803 201.482C133.915 201.422 134.021 201.356 134.133 201.298C134.318 201.198 134.502 201.107 134.688 201.021C134.8 200.969 134.912 200.909 135.031 200.861C135.229 200.777 135.44 200.697 135.644 200.623C135.75 200.583 135.855 200.545 135.961 200.511C136.238 200.419 136.522 200.346 136.812 200.274C136.852 200.267 136.892 200.254 136.931 200.248L136.937 200.24C137.623 200.088 138.342 200.01 139.082 199.997L189.058 199.292C194.984 199.206 199.893 203.983 199.973 209.902L200.085 217.786H206.512C206.578 217.786 206.644 217.786 206.703 217.793C206.346 224.647 205.588 228.832 205.588 228.832C207.278 229.558 208.907 230.316 210.471 231.096C209.336 231.835 207.976 232.27 206.512 232.27" fill="black"/>
</g>
<g opacity="0.35">
<path d="M144.637 312.524C144.637 312.524 108.613 300.726 103.281 333.849C103.281 333.849 109.553 310.211 142.167 318.052L144.637 312.524Z" fill="black"/>
</g>
<path d="M166.037 264.169L171.251 260.698C172.992 259.513 174.7 258.312 176.512 257.124L176.52 257.119C176.726 256.983 177.005 257.041 177.139 257.248C177.231 257.389 177.234 257.561 177.163 257.7C176.65 258.692 176.035 259.62 175.367 260.495C174.699 261.37 173.974 262.191 173.236 262.999C172.492 263.799 171.727 264.578 170.935 265.327C170.145 266.088 169.348 266.802 168.47 267.509C167.581 268.226 166.277 268.087 165.562 267.196C164.845 266.306 164.984 265.003 165.875 264.288C165.923 264.248 165.972 264.212 166.023 264.178L166.037 264.169Z" fill="black"/>
<path d="M141.558 320.027C140.772 319.805 139.82 319.605 138.934 319.418C138.03 319.236 137.118 319.083 136.203 318.955C134.37 318.704 132.526 318.543 130.683 318.5C127.002 318.401 123.319 318.783 119.845 319.83C116.355 320.837 113.147 322.653 110.431 325.094C107.681 327.518 105.5 330.61 103.578 333.963L103.573 333.972C103.485 334.125 103.289 334.179 103.136 334.091C103.007 334.017 102.949 333.869 102.985 333.733C103.476 331.831 104.117 329.931 105.061 328.157C105.5 327.251 106.052 326.407 106.606 325.555C106.875 325.125 107.216 324.746 107.521 324.338C107.832 323.936 108.14 323.527 108.502 323.164C109.857 321.628 111.47 320.319 113.191 319.19C114.912 318.057 116.773 317.127 118.709 316.44C122.578 315.031 126.679 314.426 130.726 314.421C132.752 314.421 134.773 314.544 136.771 314.825C137.771 314.964 138.767 315.127 139.76 315.324C140.77 315.526 141.706 315.753 142.777 316.076C143.869 316.405 144.489 317.557 144.161 318.649C143.835 319.731 142.703 320.349 141.621 320.043L141.559 320.026L141.558 320.027Z" fill="black"/>
<path d="M128.936 301.851C121.34 301.851 114.616 300.416 109.363 298.747C98.4465 295.277 91.5269 290.189 91.2377 289.973C90.3213 289.293 90.1305 287.997 90.8113 287.081C91.492 286.166 92.7849 285.974 93.7013 286.653C93.9644 286.848 120.39 306.006 150.138 293.421C151.189 292.977 152.402 293.468 152.847 294.519C153.292 295.57 152.8 296.783 151.749 297.228C143.718 300.626 135.956 301.851 128.936 301.851Z" fill="black"/>
<path d="M190.674 293.501C190.318 293.501 189.956 293.408 189.626 293.214C188.643 292.634 188.315 291.369 188.895 290.385C189.122 290 194.568 280.857 204.255 273.138C217.283 262.758 231.694 260.073 245.927 265.38C246.997 265.779 247.541 266.968 247.143 268.038C246.744 269.108 245.553 269.651 244.485 269.253C231.536 264.427 218.9 266.797 206.926 276.298C197.803 283.535 192.509 292.396 192.457 292.485C192.072 293.138 191.382 293.501 190.675 293.501H190.674Z" fill="black"/>
<path d="M249.612 299.099C249.226 299.078 248.717 299.064 248.256 299.066L246.833 299.085C245.88 299.104 244.924 299.166 243.97 299.25C242.064 299.43 240.167 299.72 238.298 300.111C234.566 300.917 230.94 302.173 227.63 304.009C225.979 304.932 224.408 305.991 222.93 307.173C221.476 308.382 220.104 309.701 218.881 311.161C218.563 311.517 218.282 311.902 217.98 312.272C217.681 312.646 217.375 313.014 217.112 313.415L216.258 314.581C215.981 314.976 215.737 315.393 215.456 315.792C214.898 316.59 214.422 317.441 213.897 318.279C213.364 319.117 212.929 320.006 212.364 320.86L212.344 320.89C212.206 321.099 211.925 321.155 211.717 321.018C211.566 320.919 211.495 320.743 211.52 320.574C211.824 318.535 212.353 316.507 213.188 314.592C213.956 312.642 215.065 310.838 216.283 309.115C217.542 307.417 218.983 305.851 220.537 304.401C222.105 302.965 223.833 301.711 225.64 300.595C227.447 299.472 229.365 298.545 231.335 297.777C233.304 297.004 235.327 296.383 237.383 295.928C239.436 295.459 241.52 295.158 243.613 294.994C244.661 294.915 245.709 294.86 246.764 294.851C247.291 294.842 247.819 294.851 248.351 294.875C248.895 294.897 249.387 294.923 250.003 294.984C251.139 295.097 251.969 296.108 251.857 297.244C251.749 298.348 250.787 299.165 249.688 299.104L249.613 299.099H249.612Z" fill="black"/>
<path d="M107.426 178.149C106.734 181 106.115 183.917 105.522 186.805C105.254 188.262 104.926 189.699 104.694 191.162L104.281 193.337L103.926 195.524C102.951 201.349 102.303 207.227 101.941 213.121C101.835 214.593 101.818 216.071 101.75 217.546L101.656 219.758C101.632 220.494 101.642 221.232 101.633 221.971L101.606 226.398L101.747 230.824C101.792 232.299 101.833 233.774 101.96 235.245L102.25 239.662C102.316 241.137 102.54 242.6 102.682 244.068L103.136 248.475L103.143 248.549C103.164 248.768 103.149 248.988 103.106 249.19L91.7076 301.532L86.0086 327.703L84.5836 334.246L84.4053 335.064L84.2806 335.806C84.1971 336.295 84.0998 336.784 84.0873 337.28C84.0599 337.773 83.9913 338.268 84.0287 338.763C84.0549 339.257 84.02 339.757 84.1035 340.247C84.4738 344.194 86.3477 347.985 89.2527 350.686C90.7002 352.039 92.3909 353.131 94.2286 353.881L95.6325 354.376C96.1212 354.535 96.6623 354.677 97.1747 354.824C98.2183 355.102 99.2681 355.364 100.328 355.596C104.564 356.52 108.901 357.079 113.266 357.328C117.621 357.579 122.047 357.579 126.39 357.297C130.7 357.006 134.983 356.323 139.019 354.998C141.035 354.334 142.975 353.5 144.819 352.522C146.633 351.499 148.336 350.316 149.822 348.933C152.82 346.199 154.782 342.51 154.938 338.64C155.025 336.711 154.675 334.76 153.959 332.914C153.246 331.065 152.18 329.324 150.898 327.727C149.632 326.115 148.095 324.682 146.45 323.379C144.826 322.044 142.995 320.941 141.161 319.862L141.141 319.85C140.198 319.295 139.852 318.111 140.311 317.143C142.029 313.534 143.606 309.705 145.061 305.897C146.518 302.075 147.874 298.208 149.09 294.301C150.314 290.396 151.443 286.46 152.413 282.487C153.427 278.522 154.232 274.513 154.989 270.499C155.135 269.725 155.692 269.129 156.39 268.893C157.193 268.625 158.082 268.288 158.916 267.947C159.762 267.601 160.596 267.23 161.416 266.837C163.056 266.053 164.628 265.165 166.052 264.161L166.062 264.154C166.879 263.578 167.973 263.679 168.672 264.341L177.704 272.875L182.22 277.143L184.476 279.276C185.228 279.989 185.972 280.672 186.783 281.498C189.901 284.722 192.186 288.74 193.38 293.063C193.678 294.143 193.917 295.241 194.073 296.351C194.163 296.923 194.217 297.413 194.285 297.932L194.48 299.473L195.26 305.637L196.818 317.963L197.597 324.128C197.851 326.256 198.101 328.051 198.656 329.898C200.774 337.23 206.701 343.338 214.06 345.395C217.8 346.507 221.746 346.961 225.698 346.856C229.654 346.758 233.617 346.129 237.497 345.124C241.369 344.112 245.061 342.701 248.494 340.742C251.933 338.815 255.041 336.328 257.699 333.458C260.379 330.603 262.498 327.258 263.936 323.692C264.62 321.896 265.108 320.046 265.382 318.177C265.618 316.305 265.593 314.428 265.292 312.614C265.009 310.795 264.353 309.068 263.428 307.517C262.49 305.977 261.325 304.547 259.849 303.434C258.391 302.314 256.783 301.329 254.994 300.662C254.135 300.262 253.191 300.031 252.278 299.734C251.356 299.465 250.388 299.306 249.445 299.081L249.366 299.062C248.317 298.812 247.64 297.821 247.756 296.777C247.84 296.02 247.905 295.109 247.932 294.254C247.966 293.386 247.976 292.511 247.965 291.634C247.937 289.882 247.861 288.126 247.683 286.375C247.366 282.872 246.733 279.397 245.86 275.991C244.098 269.183 241.267 262.649 237.363 256.809C236.428 255.323 235.341 253.939 234.291 252.534C233.168 251.184 232.071 249.811 230.841 248.551C229.678 247.231 228.362 246.058 227.105 244.829C226.452 244.24 225.771 243.679 225.106 243.103L224.104 242.243C223.765 241.963 223.407 241.705 223.058 241.435C217.491 237.105 211.306 233.557 204.784 230.743L204.774 230.738C203.887 230.33 203.416 229.389 203.557 228.471C203.882 226.375 204.14 224.121 204.351 221.924C204.531 219.709 204.695 217.487 204.803 215.262C205.016 210.809 205.009 206.342 204.812 201.88L204.748 200.207L204.63 198.536C204.549 197.423 204.492 196.306 204.391 195.192C204.153 192.972 203.957 190.741 203.629 188.53C203.103 184.077 202.272 179.681 201.583 175.197L201.581 175.179C201.54 174.906 201.725 174.652 201.999 174.609C202.234 174.573 202.456 174.708 202.538 174.921C204.21 179.166 205.569 183.562 206.443 188.056C207.38 192.538 207.989 197.087 208.382 201.653C208.59 203.936 208.714 206.226 208.797 208.518L208.846 211.958C208.862 213.105 208.825 214.253 208.815 215.4C208.808 216.548 208.737 217.695 208.7 218.844C208.649 219.991 208.545 221.138 208.467 222.285C208.259 224.591 208.035 226.839 207.624 229.208L206.406 226.941L206.417 226.946C213.216 229.879 219.719 233.599 225.606 238.181C225.974 238.467 226.353 238.738 226.711 239.036L227.776 239.945C228.48 240.556 229.199 241.152 229.893 241.777C231.23 243.081 232.623 244.329 233.864 245.732C235.169 247.072 236.341 248.533 237.535 249.973C238.657 251.469 239.812 252.947 240.812 254.53C244.974 260.759 247.992 267.727 249.862 274.959C250.791 278.578 251.461 282.263 251.798 285.987C251.987 287.846 252.069 289.717 252.099 291.592C252.11 292.531 252.099 293.469 252.063 294.413C252.028 295.372 251.972 296.271 251.855 297.317L250.166 295.013C251.24 295.261 252.322 295.444 253.386 295.753C254.444 296.09 255.518 296.364 256.545 296.831C258.637 297.62 260.618 298.802 262.428 300.204C266.053 303.038 268.645 307.35 269.367 311.907C269.746 314.177 269.766 316.479 269.481 318.717C269.159 320.948 268.58 323.118 267.788 325.195C266.134 329.309 263.725 333.068 260.742 336.257C257.774 339.462 254.329 342.206 250.543 344.332C246.779 346.483 242.67 348.048 238.532 349.125C234.397 350.196 230.126 350.88 225.798 350.988C221.474 351.103 217.087 350.608 212.884 349.357C210.766 348.72 208.656 347.832 206.73 346.684C204.79 345.546 203.027 344.122 201.45 342.53C198.307 339.336 195.942 335.375 194.695 331.073C194.045 328.95 193.73 326.625 193.497 324.645L192.718 318.481L191.159 306.154L190.38 299.991L190.185 298.45C190.119 297.942 190.058 297.403 189.985 296.953C189.854 296.012 189.649 295.081 189.397 294.166C188.386 290.505 186.45 287.1 183.808 284.368C183.168 283.716 182.391 282.994 181.639 282.282L179.381 280.148L174.865 275.88L165.835 267.346L168.455 267.525C166.765 268.718 165.004 269.701 163.206 270.564C162.307 270.994 161.401 271.396 160.483 271.773C159.556 272.151 158.663 272.494 157.659 272.828L159.061 271.223C158.287 275.334 157.463 279.434 156.428 283.483C155.436 287.542 154.283 291.558 153.035 295.541C151.795 299.529 150.413 303.47 148.926 307.372C147.427 311.286 145.856 315.112 144.022 318.968L143.172 316.248C145.183 317.426 147.188 318.638 149.021 320.139C150.868 321.604 152.624 323.236 154.122 325.134C155.63 327.014 156.93 329.117 157.824 331.436C158.719 333.749 159.187 336.284 159.071 338.82C158.964 341.354 158.272 343.857 157.133 346.087C156.003 348.326 154.44 350.294 152.656 351.946C150.875 353.605 148.886 354.978 146.81 356.145C144.712 357.263 142.537 358.191 140.312 358.924C135.858 360.385 131.25 361.111 126.663 361.422C122.1 361.717 117.579 361.714 113.022 361.455C108.477 361.194 103.929 360.613 99.4414 359.633C98.3193 359.389 97.2034 359.111 96.09 358.814C95.5315 358.654 94.9916 358.512 94.4181 358.328L92.6664 357.708C90.3673 356.771 88.2453 355.402 86.4325 353.707C82.7957 350.324 80.458 345.597 79.9917 340.65C79.8944 340.035 79.9219 339.412 79.8957 338.792C79.8583 338.171 79.9306 337.553 79.9692 336.934C79.9929 336.312 80.1051 335.703 80.2086 335.092L80.367 334.184L80.5453 333.366L81.9703 326.822L87.6706 300.652L99.0686 248.31L99.0399 249.024C98.6846 246.023 98.2681 243.027 98.0263 240.014C97.8255 236.998 97.5226 233.986 97.5201 230.959L97.4253 226.425L97.5001 221.891C97.5176 221.136 97.5163 220.38 97.5475 219.625L97.6734 217.361C97.7757 215.853 97.8305 214.342 97.9739 212.837C98.4614 206.81 99.3479 200.819 100.532 194.892C101.117 191.927 101.874 188.995 102.757 186.101C103.662 183.207 104.67 180.366 106.041 177.608C106.224 177.238 106.674 177.087 107.043 177.27C107.362 177.428 107.519 177.784 107.437 178.117L107.428 178.153L107.426 178.149Z" fill="black"/>
<path d="M206.513 227.652H177.421C173.423 227.652 170.181 224.411 170.181 220.412C170.181 216.414 173.423 213.173 177.421 213.173H206.513C210.512 213.173 213.753 216.415 213.753 220.412C213.753 224.409 210.512 227.652 206.513 227.652Z" fill="white"/>
<g opacity="0.35">
<path d="M206.513 221.714H177.421C174.482 221.714 171.958 219.96 170.823 217.444C170.414 218.35 170.181 219.354 170.181 220.414C170.181 224.412 173.423 227.654 177.421 227.654H206.513C210.512 227.654 213.753 224.412 213.753 220.414C213.753 219.355 213.52 218.351 213.111 217.444C211.977 219.96 209.452 221.714 206.513 221.714Z" fill="black"/>
</g>
<path d="M206.513 229.896H177.421C172.192 229.896 167.937 225.642 167.937 220.412C167.937 215.182 172.191 210.929 177.421 210.929H206.513C211.742 210.929 215.997 215.183 215.997 220.412C215.997 225.641 211.743 229.896 206.513 229.896ZM177.421 215.418C174.667 215.418 172.425 217.658 172.425 220.413C172.425 223.169 174.667 225.409 177.421 225.409H206.513C209.267 225.409 211.509 223.168 211.509 220.413C211.509 217.659 209.267 215.418 206.513 215.418H177.421Z" fill="black"/>
<path d="M189.739 242.8L139.756 243.504C133.84 243.588 128.928 238.816 128.842 232.891L128.47 206.292C128.397 201.107 132.05 196.7 136.934 195.627C137.625 195.47 138.343 195.391 139.083 195.379L189.058 194.675C194.982 194.59 199.895 199.364 199.973 205.287L200.273 226.354L200.353 231.886C200.438 237.811 195.656 242.714 189.74 242.8" fill="white"/>
<g opacity="0.35">
<path d="M189.739 242.8L139.756 243.504C133.84 243.588 128.928 238.816 128.842 232.891L128.47 206.292C128.397 201.107 132.05 196.7 136.934 195.627C139.798 197.473 141.619 198.653 141.619 198.653C144.353 219.969 143.637 235.811 176.734 233.149C188.144 232.231 195.747 228.767 200.273 226.354L200.353 231.886C200.438 237.811 195.656 242.714 189.74 242.8" fill="black"/>
</g>
<path d="M139.605 245.45C136.29 245.45 133.155 244.173 130.759 241.844C128.319 239.473 126.95 236.304 126.903 232.921L126.528 206.319C126.48 202.936 127.761 199.731 130.132 197.291C132.505 194.851 135.673 193.482 139.054 193.435L189.033 192.73C196.054 192.618 201.819 198.251 201.918 205.257L202.292 231.859C202.34 235.24 201.06 238.447 198.687 240.887C196.316 243.327 193.147 244.697 189.765 244.744L139.785 245.449C139.723 245.449 139.664 245.45 139.603 245.45H139.605ZM189.215 196.615C189.173 196.615 189.132 196.615 189.09 196.615L139.109 197.32C136.765 197.352 134.566 198.304 132.919 199.999C131.27 201.694 130.38 203.919 130.414 206.263L130.789 232.865C130.823 235.209 131.774 237.408 133.47 239.057C135.165 240.705 137.396 241.604 139.733 241.561L189.714 240.857C192.058 240.823 194.257 239.872 195.906 238.176C197.554 236.481 198.443 234.256 198.41 231.913L198.036 205.31C197.968 200.489 194.024 196.613 189.218 196.613L189.215 196.615Z" fill="black"/>
<path d="M191.743 242.575C191.097 242.718 190.432 242.793 189.739 242.799L139.756 243.502C135.421 243.561 131.626 241.02 129.875 237.315C129.237 235.969 128.869 234.471 128.85 232.89L128.68 221.073L128.623 217.174L128.47 206.291C128.385 200.368 133.167 195.463 139.083 195.378L149.883 195.229C144.918 196.237 141.19 200.678 141.26 205.917L141.458 220.285L141.632 232.523C141.717 238.439 146.631 243.221 152.547 243.136L191.745 242.575H191.743Z" fill="white"/>
<g opacity="0.35">
<path d="M191.743 242.575C191.097 242.718 190.432 242.793 189.739 242.799L139.756 243.503C133.84 243.587 128.928 238.815 128.85 232.891L128.624 217.176C129.919 219.935 132.227 223.311 135.845 223.619C137.831 223.792 139.762 222.337 141.457 220.286L141.631 232.525C141.716 238.441 146.629 243.222 152.545 243.137L191.744 242.576L191.743 242.575Z" fill="black"/>
</g>
<path d="M139.594 245.45C136.285 245.45 133.153 244.174 130.759 241.845C128.318 239.473 126.949 236.303 126.904 232.921L126.53 206.32C126.48 202.938 127.76 199.732 130.132 197.292C132.504 194.853 135.673 193.483 139.055 193.433L149.851 193.282C149.86 193.282 149.87 193.282 149.879 193.282C150.87 193.282 151.704 194.029 151.81 195.016C151.917 196.014 151.249 196.928 150.266 197.129C146.112 197.975 143.141 201.661 143.202 205.892L143.576 232.495C143.607 234.838 144.559 237.038 146.254 238.686C147.95 240.335 150.173 241.227 152.514 241.191L191.718 240.635C191.727 240.635 191.737 240.635 191.745 240.635C192.733 240.635 193.564 241.375 193.675 242.359C193.787 243.351 193.129 244.268 192.153 244.477C191.366 244.646 190.56 244.735 189.755 244.742L139.781 245.447C139.717 245.447 139.655 245.449 139.593 245.449L139.594 245.45ZM142.584 197.271L139.11 197.319C136.766 197.353 134.566 198.305 132.917 200.001C131.269 201.697 130.38 203.921 130.414 206.265L130.788 232.867C130.819 235.212 131.77 237.412 133.466 239.061C135.162 240.71 137.381 241.586 139.725 241.565L143.58 241.51C143.567 241.497 143.555 241.486 143.544 241.475C141.104 239.101 139.735 235.932 139.689 232.551L139.315 205.949C139.267 202.653 140.497 199.586 142.582 197.272L142.584 197.271Z" fill="black"/>
<path d="M161.157 219.159C161.164 220.143 159.849 228.096 159.849 228.096C159.849 228.096 157.333 228.117 154.244 228.143C150.385 228.176 147.223 224.205 147.182 219.277C147.141 214.349 150.235 210.327 154.095 210.294C156.7 210.273 159.699 210.247 159.699 210.247C159.699 210.247 161.143 217.558 161.157 219.16" fill="#3BA1DA"/>
<g opacity="0.35">
<path d="M161.157 219.159C161.164 220.143 159.849 228.096 159.849 228.096C159.849 228.096 157.333 228.117 154.244 228.143C150.385 228.176 147.223 224.205 147.182 219.277C147.141 214.349 150.235 210.327 154.095 210.294C156.7 210.273 159.699 210.247 159.699 210.247C159.699 210.247 161.143 217.558 161.157 219.16" fill="black"/>
</g>
<path d="M154.196 229.818C149.447 229.818 145.555 225.11 145.506 219.29C145.457 213.445 149.304 208.658 154.08 208.618L159.686 208.57H159.699C160.499 208.57 161.187 209.135 161.343 209.921C161.588 211.167 162.818 217.47 162.831 219.144C162.84 220.163 161.904 225.934 161.501 228.368C161.368 229.171 160.677 229.762 159.863 229.769L154.257 229.817C154.237 229.817 154.217 229.817 154.197 229.817L154.196 229.818ZM158.319 211.933L154.108 211.968C151.179 211.993 148.822 215.264 148.855 219.261C148.889 223.244 151.281 226.468 154.195 226.468C154.206 226.468 154.217 226.468 154.228 226.468L158.424 226.433C158.967 223.082 159.47 219.73 159.482 219.168C159.471 218.261 158.844 214.683 158.32 211.934L158.319 211.933Z" fill="black"/>
<path d="M166.761 219.113C166.802 224.042 163.708 228.064 159.848 228.096C155.989 228.129 152.827 224.159 152.785 219.231C152.745 214.301 155.839 210.279 159.698 210.246C163.557 210.215 166.719 214.185 166.76 219.113" fill="#3BA1DA"/>
<g opacity="0.35">
<path d="M152.786 219.23C152.826 224.156 155.988 228.128 159.845 228.097C163.709 228.066 166.803 224.041 166.758 219.109C166.755 218.445 166.69 217.793 166.573 217.167C165.608 220.56 163.072 222.994 160.075 223.014C156.742 223.041 153.925 220.087 153.201 216.096C152.922 217.072 152.778 218.128 152.785 219.229" fill="black"/>
</g>
<path d="M152.786 219.23C152.787 219.565 152.806 219.897 152.841 220.221C153.575 216.354 156.294 213.475 159.555 213.45C163.149 213.423 166.146 216.867 166.558 221.331C166.696 220.617 166.764 219.876 166.759 219.109C166.72 214.183 163.557 210.211 159.699 210.243C155.841 210.281 152.746 214.299 152.785 219.23" fill="white"/>
<path d="M159.802 229.77C155.053 229.77 151.16 225.064 151.11 219.244C151.063 213.399 154.909 208.61 159.686 208.57C159.706 208.57 159.726 208.57 159.744 208.57C164.494 208.57 168.387 213.278 168.435 219.098C168.484 224.943 164.638 229.729 159.861 229.769C159.841 229.769 159.822 229.769 159.8 229.769L159.802 229.77ZM159.745 211.92C159.734 211.92 159.724 211.92 159.713 211.92C156.784 211.945 154.428 215.217 154.46 219.215C154.494 223.197 156.887 226.42 159.8 226.42C159.812 226.42 159.823 226.42 159.834 226.42C162.763 226.395 165.119 223.124 165.087 219.127C165.053 215.145 162.66 211.92 159.747 211.92H159.745Z" fill="black"/>
<path d="M174.199 244.502H174.183C173.258 244.493 172.515 243.737 172.524 242.812L172.7 224.357C172.705 223.795 172.991 223.273 173.464 222.968L181.175 217.967L180.928 194.8C180.918 193.874 181.66 193.116 182.585 193.106H182.603C183.519 193.106 184.267 193.845 184.277 194.763L184.533 218.852C184.539 219.426 184.251 219.963 183.768 220.275L176.04 225.287L175.873 242.842C175.864 243.762 175.116 244.501 174.198 244.501L174.199 244.502Z" fill="black"/>
<path d="M126.558 227.652H97.4654C93.467 227.652 90.2253 224.411 90.2253 220.412C90.2253 216.414 93.467 213.173 97.4654 213.173H126.558C130.556 213.173 133.798 216.415 133.798 220.412C133.798 224.409 130.556 227.652 126.558 227.652Z" fill="white"/>
<g opacity="0.35">
<path d="M126.558 221.714H97.4654C94.5267 221.714 92.002 219.96 90.8674 217.444C90.4585 218.35 90.2253 219.354 90.2253 220.414C90.2253 224.412 93.467 227.654 97.4654 227.654H126.558C130.556 227.654 133.798 224.412 133.798 220.414C133.798 219.355 133.564 218.351 133.156 217.444C132.021 219.96 129.496 221.714 126.558 221.714Z" fill="black"/>
</g>
<path d="M126.558 229.896H97.4654C92.2364 229.896 87.9812 225.642 87.9812 220.412C87.9812 215.182 92.2352 210.929 97.4654 210.929H126.558C131.787 210.929 136.042 215.183 136.042 220.412C136.042 225.641 131.788 229.896 126.558 229.896ZM97.4654 215.418C94.7113 215.418 92.4696 217.658 92.4696 220.413C92.4696 223.169 94.7113 225.409 97.4654 225.409H126.558C129.312 225.409 131.553 223.168 131.553 220.413C131.553 217.659 129.312 215.418 126.558 215.418H97.4654Z" fill="black"/>
<path d="M69.8842 244.592C69.8842 244.592 44.7168 225.78 55.3006 199.907C65.8845 174.034 94.9319 156.846 94.9319 156.846H106.73V177.148C101.516 183.523 98.7595 206.769 98.7595 206.769C104.652 214.661 112.055 226.367 116.661 240.216V240.224C117.934 244.038 118.99 248.016 119.743 252.12C125.627 284.104 60.7129 289.983 69.8842 244.592Z" fill="white"/>
<g opacity="0.35">
<path d="M107.06 178.207C105.265 182.737 100.606 195.89 100.89 209.706C100.89 209.706 93.5367 199.205 87.1171 193.712C86.8553 193.487 86.9899 193.057 87.334 193.036C88.5409 192.957 90.7577 192.951 92.9208 193.667C95.079 194.381 97.3992 193.245 98.075 191.075C99.1796 187.526 101.51 182.67 106.427 177.799C106.721 177.507 107.211 177.824 107.059 178.209" fill="black"/>
</g>
<g opacity="0.35">
<path d="M69.8843 244.592C69.8843 244.592 74.9549 245.167 79.5069 251.607C84.5688 258.766 92.9983 262.839 101.706 261.807C110.679 260.742 119.142 255.812 116.66 240.224C117.933 244.038 118.989 248.016 119.742 252.12C125.626 284.104 60.7118 289.982 69.8831 244.592" fill="black"/>
</g>
<path d="M70.5587 242.399C70.7706 242.463 70.8754 242.503 71.0175 242.55C71.1584 242.597 71.2718 242.646 71.399 242.693C71.6521 242.787 71.8853 242.898 72.1172 243.004C72.5897 243.213 73.0273 243.459 73.4649 243.707C73.8963 243.96 74.3252 244.221 74.7242 244.512C75.1356 244.79 75.5383 245.08 75.9123 245.399C77.4446 246.637 78.7911 248.068 79.9469 249.613C80.483 250.415 81.0702 251.176 81.5054 252.032C81.7323 252.452 81.9829 252.857 82.1849 253.287L82.7559 254.59C82.9579 255.015 83.105 255.467 83.2484 255.915C83.3992 256.361 83.5314 256.812 83.666 257.259C83.9017 258.166 84.065 259.091 84.1984 260.009C84.242 260.315 84.0288 260.601 83.7209 260.646C83.5102 260.676 83.3094 260.586 83.1898 260.425L83.1598 260.384C82.6125 259.648 82.1499 258.894 81.66 258.168C81.1226 257.466 80.69 256.721 80.1401 256.055C79.129 254.671 78.0244 253.402 76.8923 252.196C75.7128 251.033 74.4773 249.961 73.1607 249.038C72.5124 248.561 71.8254 248.153 71.1472 247.757C70.8068 247.566 70.4602 247.38 70.1211 247.213C69.9503 247.128 69.7782 247.046 69.6161 246.974L69.2059 246.788L68.9591 246.677C67.8071 246.158 67.2934 244.804 67.812 243.651C68.2883 242.592 69.4727 242.074 70.5562 242.399" fill="black"/>
<path d="M64.1315 240.172C63.8298 240.172 63.5243 240.106 63.2351 239.966C62.2077 239.47 61.7763 238.236 62.2713 237.209C62.6266 236.471 71.1496 219.078 86.0211 213.911C92.7113 211.586 99.6072 212.114 106.521 215.477C107.547 215.977 107.974 217.214 107.474 218.24C106.974 219.266 105.738 219.695 104.712 219.194C98.8292 216.33 93.0018 215.865 87.3926 217.81C74.1506 222.401 66.0752 238.838 65.9942 239.004C65.6376 239.742 64.8995 240.172 64.1315 240.172Z" fill="black"/>
<path d="M90.1693 195.378C92.7651 197.413 95.0679 199.701 97.2884 202.086C99.4951 204.48 101.545 207.012 103.48 209.634C105.412 212.258 107.19 214.995 108.856 217.8C109.729 219.179 110.482 220.63 111.281 222.055C111.669 222.774 112.088 223.476 112.449 224.209L113.538 226.407L114.626 228.606C114.975 229.345 115.286 230.106 115.617 230.855L116.596 233.111L117.08 234.24L117.507 235.396C118.07 236.938 118.663 238.47 119.198 240.024L120.612 244.757C120.867 245.54 121.026 246.351 121.21 247.156L121.753 249.571C121.925 250.388 122.13 251.153 122.275 252.014L122.474 253.33L122.593 254.664C122.829 258.232 122.218 261.963 120.64 265.269C119.086 268.586 116.645 271.399 113.829 273.545C111.008 275.703 107.825 277.258 104.522 278.304C101.216 279.352 97.7684 279.881 94.3111 279.89C90.8562 279.903 87.379 279.411 84.0538 278.3C80.7337 277.202 77.5594 275.474 74.8988 273.085C72.2394 270.7 70.1623 267.676 68.822 264.407C67.4967 261.126 66.897 257.646 66.801 254.23C66.7337 250.809 67.1526 247.444 67.8533 244.186V244.182L68.6412 246.247C67.6076 245.449 66.7548 244.691 65.8659 243.87C64.9932 243.059 64.1454 242.222 63.3325 241.356C61.7004 239.626 60.1681 237.801 58.773 235.866C55.9765 232.008 53.67 227.722 52.2474 223.082C51.533 220.766 51.038 218.375 50.7887 215.95C50.5692 213.52 50.6104 211.069 50.8847 208.648C51.1577 206.223 51.7611 203.858 52.4855 201.547C53.2585 199.23 54.3108 197.125 55.297 194.969L55.6735 194.165L56.1074 193.393L56.9752 191.851L57.8454 190.31L58.2805 189.54L58.7668 188.803L60.713 185.86L61.2005 185.125L61.7303 184.423L62.7901 183.019C64.1641 181.113 65.7088 179.356 67.2187 177.568C67.9705 176.67 68.7996 175.849 69.5863 174.986C70.3805 174.129 71.1734 173.273 72.0187 172.47C75.294 169.145 78.8211 166.095 82.4455 163.179C83.3507 162.448 84.2658 161.729 85.2021 161.037C86.126 160.33 87.0611 159.639 88.0148 158.969C89.9187 157.605 91.8125 156.319 93.8759 155.059C94.8509 154.464 96.1226 154.772 96.7161 155.746C97.3108 156.719 97.0028 157.992 96.0291 158.586L95.9805 158.615C94.134 159.742 92.2314 161.027 90.4136 162.332C89.4923 162.98 88.5871 163.649 87.6919 164.335C86.7855 165.004 85.8991 165.701 85.0226 166.409C81.5129 169.235 78.0955 172.189 74.9412 175.394C74.1233 176.168 73.3615 176.992 72.5985 177.816C71.8417 178.645 71.0425 179.437 70.3231 180.296C68.8781 182.009 67.3932 183.693 66.0891 185.508L65.0779 186.845L64.5717 187.515L64.1117 188.212L62.2677 191.001L61.8064 191.698L61.3975 192.423L60.5808 193.875L59.7629 195.326L59.3527 196.051L59.0037 196.803L57.6135 199.817C57.1061 200.815 56.8093 201.84 56.4116 202.853C55.7695 204.91 55.2309 207.002 54.9928 209.134C54.7534 211.263 54.716 213.412 54.908 215.546C55.1287 217.679 55.5663 219.793 56.2009 221.853C57.4651 225.984 59.5485 229.881 62.1243 233.435C63.4085 235.215 64.8286 236.906 66.3409 238.508C67.094 239.312 67.8782 240.086 68.6824 240.833C69.4741 241.569 70.3418 242.327 71.1211 242.928C71.7669 243.426 72.0449 244.226 71.9128 244.976L71.909 244.992V244.996C71.353 248.022 71.1073 251.074 71.2345 254.063C71.3779 257.047 71.9626 259.965 73.0935 262.617C74.243 265.254 75.9349 267.604 78.0893 269.464C80.2537 271.312 82.8295 272.693 85.5974 273.585C88.3652 274.482 91.3238 274.878 94.2749 274.836C97.2248 274.79 100.188 274.344 102.99 273.442C105.79 272.55 108.444 271.233 110.715 269.485C112.986 267.745 114.842 265.555 116.034 263.068C117.233 260.581 117.718 257.794 117.553 254.972L117.466 253.911L117.31 252.848C117.194 252.13 116.99 251.341 116.835 250.59L116.338 248.311C116.168 247.552 116.027 246.788 115.785 246.045L114.486 241.55C113.996 240.068 113.449 238.603 112.935 237.126L112.544 236.021L112.095 234.936L111.187 232.768C110.879 232.047 110.595 231.316 110.269 230.603L109.251 228.481L108.235 226.357C107.898 225.647 107.502 224.967 107.138 224.271C106.386 222.891 105.683 221.483 104.856 220.143C103.28 217.419 101.603 214.749 99.8904 212.101C96.458 206.811 92.8473 201.587 89.1083 196.427L89.0908 196.403C88.8464 196.066 88.9225 195.595 89.2591 195.351C89.5372 195.149 89.9075 195.165 90.1668 195.367" fill="black"/>
<path d="M232.118 59.7843C231.072 59.8167 230.25 60.6919 230.283 61.738L231.984 116.311C232.016 117.357 232.891 118.178 233.937 118.146C244.915 117.803 253.536 108.628 253.194 97.6501L252.614 79.0407C252.271 68.0629 243.096 59.4414 232.118 59.7843Z" fill="white"/>
<path d="M233.879 118.547C232.646 118.547 231.623 117.563 231.585 116.323L229.884 61.7502C229.845 60.4859 230.841 59.4249 232.106 59.385C243.284 59.0272 252.664 67.8494 253.013 79.028L253.593 97.6373C253.942 108.817 245.129 118.195 233.95 118.544C233.926 118.544 233.901 118.544 233.877 118.544L233.879 118.547ZM232.132 60.183C231.308 60.2091 230.657 60.9011 230.683 61.7252L232.384 116.298C232.41 117.122 233.096 117.783 233.926 117.747C239.129 117.584 243.956 115.406 247.521 111.612C251.085 107.82 252.958 102.865 252.796 97.6622L252.216 79.0529C251.881 68.3144 242.869 59.8576 232.132 60.183Z" fill="black"/>
<g opacity="0.35">
<path d="M231.507 101.172L231.981 116.312C232.012 117.358 232.892 118.178 233.939 118.147C239.7 117.965 244.818 115.353 248.328 111.317C251.497 107.674 253.353 102.865 253.192 97.6537L252.948 89.8115C250.047 96.7885 243.253 101.798 235.205 102.05L233.213 102.111C232.486 102.132 231.855 101.749 231.507 101.17" fill="black"/>
</g>
<path d="M233.879 120.369C231.666 120.369 229.833 118.605 229.764 116.379L228.064 61.8077C227.993 59.5386 229.781 57.636 232.05 57.565C244.241 57.1872 254.454 66.7886 254.835 78.9721L255.414 97.5827C255.795 109.766 246.192 119.987 234.007 120.367C233.964 120.369 233.921 120.37 233.879 120.37V120.369ZM232.515 61.9973L234.194 115.913C238.786 115.687 243.035 113.725 246.192 110.366C249.422 106.927 251.12 102.436 250.973 97.7198L250.394 79.1092C250.093 69.4829 242.13 61.8763 232.514 61.996L232.515 61.9973Z" fill="black"/>
<path d="M63.2465 98.3566C68.1213 145.916 110.628 180.52 158.188 175.645C205.748 170.771 240.352 128.264 235.477 80.7035C230.603 33.1441 188.097 -1.45891 140.536 3.41473C92.977 8.28962 58.3728 50.7959 63.2477 98.3566" fill="white"/>
<path d="M149.296 176.473C105.309 176.473 67.4579 143.085 62.8773 98.394C57.9899 50.7073 92.8111 7.93301 140.498 3.04566C188.191 -1.83671 230.959 32.9795 235.846 80.6661C240.733 128.354 205.912 171.127 158.226 176.014C155.227 176.321 152.247 176.472 149.296 176.472V176.473ZM63.6154 98.3192C68.4616 145.599 110.869 180.124 158.15 175.278C205.43 170.433 239.953 128.024 235.108 80.7434C230.263 33.462 187.855 -1.06247 140.574 3.78499C93.2936 8.63121 58.7704 51.039 63.6154 98.3192Z" fill="black"/>
<g opacity="0.35">
<path d="M62.8498 86.3515C62.7002 90.3012 62.8311 94.3096 63.2451 98.3579C68.1249 145.916 110.63 180.519 158.188 175.649C205.748 170.768 240.349 128.264 235.479 80.7048C235.34 79.3371 235.168 77.9707 234.965 76.6304C233.456 119.145 200.794 155.107 157.278 159.568C111.086 164.299 69.6709 131.798 62.8486 86.3527" fill="black"/>
</g>
<path d="M149.295 178.169C104.448 178.169 65.8595 144.13 61.1891 98.5674C56.2083 49.9495 91.7077 6.34231 140.326 1.35895C188.947 -3.62565 232.551 31.8762 237.534 80.4942C242.516 129.112 207.017 172.721 158.399 177.703C155.343 178.016 152.305 178.169 149.295 178.169ZM65.3022 98.146C70.0537 144.496 111.624 178.342 157.977 173.59C204.328 168.839 238.171 127.266 233.421 80.9144C228.671 34.5655 187.1 0.721851 140.747 5.47206C94.3995 10.2223 60.5583 51.7997 65.3035 98.1473L65.3022 98.146Z" fill="black"/>
<path d="M230.703 119.217C225.545 129.779 218.04 138.116 210.075 144.601C204.19 149.395 197.765 153.353 190.98 156.458C175.885 163.366 158.999 166.057 142.2 164.332C88.183 158.779 76.9059 125.232 76.9059 125.232C84.0574 96.3021 74.1655 77.0806 74.1655 77.0806C74.1655 77.0806 75.032 75.8388 76.7401 73.7691C85.1135 63.659 113.618 33.7526 159.855 31.3713C217.512 28.3928 230.794 60.0933 230.794 60.0933C241.924 89.7241 230.704 119.217 230.704 119.217" fill="#111111"/>
<g opacity="0.35">
<path d="M190.98 156.456C175.885 163.365 158.999 166.055 142.2 164.332C88.183 158.779 76.9059 125.232 76.9059 125.232C84.0574 96.302 74.1655 77.0792 74.1655 77.0792C74.1655 77.0792 75.032 75.8387 76.7401 73.769C76.6466 95.2485 87.3103 114.429 100.622 129.83C110.356 141.097 147.193 158.845 190.981 156.458" fill="black"/>
</g>
<g opacity="0.5">
<path d="M108.814 90.3325C108.114 98.7644 102.595 105.189 96.4842 104.682C90.375 104.175 85.9888 96.9292 86.6883 88.4972C87.3865 80.0653 92.9072 73.6419 99.0164 74.1481C105.126 74.6543 109.513 81.9018 108.814 90.3325Z" fill="white"/>
</g>
<g opacity="0.5">
<path d="M121.224 110.755C121.441 114.632 118.919 117.926 115.592 118.112C112.265 118.298 109.391 115.305 109.175 111.428C108.958 107.55 111.479 104.256 114.807 104.071C118.133 103.885 121.007 106.877 121.224 110.755Z" fill="white"/>
</g>
<path d="M152.292 166.917C148.881 166.917 145.444 166.741 141.989 166.386C113.508 163.459 96.8407 152.705 87.8739 144.198C78.0431 134.871 75.0683 126.251 74.9461 125.888C74.582 124.806 75.1643 123.634 76.2465 123.27C77.3274 122.907 78.4969 123.487 78.8622 124.566C78.8897 124.647 81.7273 132.743 90.9111 141.38C99.4066 149.37 115.237 159.481 142.41 162.274C166.857 164.789 190.422 157.94 208.77 142.996C217.613 135.795 224.366 127.489 228.842 118.309C229.342 117.283 230.58 116.856 231.606 117.356C232.632 117.856 233.058 119.094 232.558 120.12C227.818 129.844 220.693 138.619 211.381 146.202C194.774 159.727 174.098 166.917 152.291 166.917H152.292Z" fill="black"/>
<path d="M72.4614 76.0884C72.1671 76.0884 71.8679 76.0248 71.5849 75.8926C70.5513 75.4076 70.1074 74.1771 70.5924 73.1435C76.6817 60.172 87.1833 48.4025 100.96 39.1066C114.895 29.7034 131.243 23.4944 148.237 21.1505C182.725 16.3916 209.199 24.9893 226.925 46.7019C227.626 47.4948 227.617 48.708 226.876 49.4909C226.09 50.32 224.782 50.3549 223.954 49.5707C223.927 49.5445 223.89 49.5071 223.863 49.4797C223.829 49.4423 223.795 49.4037 223.761 49.3638C207.008 28.8082 181.789 20.6942 148.8 25.2449C116.085 29.7582 86.1584 49.7129 74.334 74.9002C73.9824 75.6495 73.2381 76.0896 72.4614 76.0896V76.0884Z" fill="black"/>
<path d="M74.1643 79.1466C73.7553 79.1466 73.3414 79.0257 72.9811 78.7726C72.046 78.118 71.8178 76.8288 72.4724 75.8938C72.7853 75.4462 80.3159 64.795 94.8607 53.6613C108.283 43.3854 130.437 30.8179 159.748 29.3043C190.127 27.7371 208.274 35.8499 218.147 42.9353C229.024 50.7401 232.551 58.9489 232.695 59.2942C233.137 60.3465 232.641 61.5584 231.588 61.9997C230.535 62.4398 229.324 61.9449 228.883 60.8926C228.853 60.8228 225.539 53.2449 215.49 46.1196C206.163 39.5067 188.957 31.9387 159.96 33.4349C105.878 36.2264 76.1529 77.845 75.8586 78.2651C75.4559 78.8399 74.8151 79.1479 74.163 79.1479L74.1643 79.1466Z" fill="black"/>
<g opacity="0.5">
<path d="M222.512 111.525C222.512 111.525 232.5 66.2621 207.225 50.7784C181.951 35.2935 147.798 38.3443 148.788 40.4663C148.788 40.4663 187.403 46.3224 204.808 74.9272C218.229 96.9851 222.512 111.525 222.512 111.525Z" fill="white"/>
</g>
<path d="M61.8947 67.5168C64.3671 66.7662 67.0763 67.4594 68.8605 69.3271C72.521 73.1572 78.3073 81.7387 79.2548 98.2934C80.1849 114.553 77.3685 124.791 75.3649 129.846C74.3351 132.443 71.8602 134.172 69.0674 134.244C61.4048 134.444 46.4884 130.88 45.5333 100.383C45.5333 100.383 44.2516 72.8704 61.8935 67.5155" fill="white"/>
<g opacity="0.35">
<path d="M72.0661 73.3999C73.0261 77.0068 73.7418 81.2334 74.0248 86.1756C74.9549 102.435 72.1384 112.673 70.1361 117.728C69.1063 120.325 66.6327 122.054 63.8386 122.126C59.3552 122.244 52.3895 121.069 47.1892 113.967C51.4594 132.003 62.739 134.408 69.0689 134.244C71.8616 134.171 74.3365 132.442 75.3663 129.845C77.3699 124.791 80.1863 114.552 79.2562 98.293C78.5581 86.0946 75.2329 78.2299 72.0661 73.3999Z" fill="black"/>
</g>
<path d="M60.3078 133.357C59.0448 133.357 57.7133 133.118 56.3244 132.637C55.2459 132.263 54.6749 131.086 55.0477 130.007C55.4205 128.929 56.5987 128.357 57.6771 128.731C60.6245 129.75 62.84 129.172 64.6503 126.907C71.9826 117.727 69.1362 88.0658 64.5618 80.7135C62.3874 77.2188 60.0111 75.118 57.6883 74.6392C55.6287 74.2141 54.2111 75.1779 54.1525 75.2202C53.2349 75.8997 51.9532 75.699 51.2737 74.7814C50.5942 73.8638 50.7987 72.5609 51.715 71.8814C51.9993 71.6707 54.6038 69.8429 58.3815 70.5623C61.9448 71.2405 65.2051 73.9224 68.0727 78.5304C73.359 87.0284 76.4311 118.783 67.8807 129.487C65.831 132.054 63.2564 133.357 60.3078 133.357Z" fill="black"/>
<path d="M68.5215 136.318C60.8563 136.318 44.4737 132.527 43.47 100.449C43.4164 99.2918 42.3317 71.2955 61.2952 65.5391C64.4994 64.5666 68.0552 65.493 70.3555 67.8992C74.0223 71.7368 80.3235 80.7722 81.3196 98.1759C82.2871 115.105 79.2088 125.762 77.2876 130.608C75.9523 133.978 72.7481 136.216 69.1237 136.312C68.9292 136.317 68.7285 136.32 68.5215 136.32V136.318ZM62.4958 69.4939C46.577 74.3251 47.5881 100.027 47.6006 100.287C48.4833 128.502 61.4049 132.38 69.0152 132.178C70.9814 132.127 72.7194 130.911 73.4438 129.083C75.2391 124.554 78.1142 114.547 77.1916 98.4103C76.2702 82.3282 70.641 74.1792 67.3657 70.7544C66.1327 69.4652 64.2214 68.969 62.4946 69.4939H62.4958Z" fill="black"/>
<path d="M246.465 152.27L320.053 156.858C322.69 157.022 324.959 155.019 325.124 152.383L327.768 109.97C327.933 107.334 325.929 105.064 323.294 104.9L249.704 100.312C247.068 100.147 244.798 102.151 244.633 104.786L241.989 147.2C241.824 149.836 243.828 152.106 246.464 152.271" fill="white"/>
<g opacity="0.35">
<path d="M241.989 147.199L244.633 104.786C244.798 102.15 247.067 100.146 249.704 100.31L250.983 100.391C250.632 100.987 250.407 101.673 250.361 102.412L247.848 142.723C247.692 145.229 249.595 147.386 252.1 147.543L322.042 151.904C323.242 151.979 324.36 151.576 325.219 150.867L325.124 152.384C324.959 155.02 322.69 157.025 320.053 156.86L246.465 152.272C243.829 152.107 241.826 149.837 241.99 147.201" fill="black"/>
</g>
<g opacity="0.7">
<path d="M327.372 113.964C327.536 111.328 325.533 109.058 322.897 108.893L249.308 104.305C247.071 104.165 245.103 105.589 244.456 107.633L244.633 104.785C244.798 102.149 247.068 100.146 249.704 100.31L323.292 104.898C325.928 105.063 327.933 107.332 327.768 109.969L325.124 152.383C325.099 152.782 325.02 153.165 324.904 153.53L327.372 113.964Z" fill="white"/>
</g>
<g opacity="0.3">
<path d="M282.94 133.587C282.775 133.587 282.61 133.556 282.454 133.495L244.061 118.277C243.384 118.007 243.052 117.24 243.32 116.563C243.59 115.886 244.357 115.555 245.034 115.823L283.043 130.888L327.238 120.515C327.947 120.347 328.658 120.788 328.824 121.498C328.991 122.208 328.551 122.918 327.841 123.084L283.242 133.552C283.142 133.576 283.041 133.587 282.94 133.587Z" fill="black"/>
</g>
<path d="M282.767 131.283C282.56 131.283 282.353 131.244 282.159 131.167L243.764 115.949C242.918 115.613 242.503 114.654 242.839 113.807C243.175 112.96 244.133 112.545 244.981 112.882L282.894 127.908L326.988 117.558C327.873 117.349 328.762 117.9 328.97 118.788C329.178 119.674 328.629 120.562 327.741 120.77L283.144 131.238C283.019 131.267 282.893 131.281 282.767 131.281V131.283Z" fill="black"/>
<path d="M283.967 138.862C283.227 139.151 282.399 139.125 281.68 138.787C273.057 134.746 268.96 124.524 274.061 120.314C279.042 116.202 283.394 121.191 283.394 121.191C283.394 121.191 288.061 116.495 292.765 120.92C297.583 125.452 292.834 135.387 283.967 138.862Z" fill="#FF0068"/>
<path d="M282.912 140.379C282.297 140.379 281.684 140.246 281.12 139.982C275.493 137.345 271.264 132.026 270.596 126.745C270.206 123.661 271.139 121.016 273.222 119.295C277.269 115.953 281.262 117.582 283.453 119.412C285.757 117.728 289.846 116.362 293.67 119.959C295.639 121.81 296.398 124.511 295.808 127.563C294.8 132.789 290.234 137.824 284.448 140.09C283.955 140.283 283.433 140.379 282.912 140.379ZM278.215 120.012C277.208 120.012 276.081 120.358 274.901 121.331C273.157 122.771 273.02 124.89 273.213 126.413C273.764 130.763 277.476 135.36 282.24 137.592C282.629 137.774 283.084 137.789 283.485 137.633C288.384 135.714 292.386 131.367 293.218 127.061C293.508 125.554 293.509 123.431 291.862 121.88C288.232 118.465 284.717 121.739 284.328 122.124C284.069 122.38 283.71 122.522 283.349 122.507C282.985 122.493 282.641 122.332 282.402 122.058C282.153 121.778 280.493 120.011 278.218 120.011L278.215 120.012Z" fill="black"/>
<path d="M320.355 159.089C320.209 159.089 320.062 159.084 319.915 159.075L246.326 154.487C244.459 154.37 242.749 153.534 241.511 152.132C240.273 150.729 239.656 148.929 239.772 147.061L242.417 104.647C242.534 102.779 243.369 101.07 244.772 99.8319C246.174 98.5939 247.973 97.9755 249.842 98.0927L323.432 102.681C327.286 102.92 330.226 106.252 329.986 110.107L327.342 152.521C327.11 156.227 324.02 159.089 320.356 159.089H320.355ZM249.402 102.522C248.779 102.522 248.183 102.747 247.712 103.163C247.199 103.616 246.894 104.242 246.85 104.924L244.206 147.338C244.163 148.021 244.389 148.679 244.842 149.192C245.294 149.704 245.92 150.01 246.602 150.053L320.19 154.641C321.599 154.73 322.818 153.654 322.906 152.245L325.55 109.832C325.637 108.422 324.563 107.204 323.154 107.117L249.564 102.529C249.509 102.525 249.456 102.524 249.401 102.524L249.402 102.522Z" fill="black"/>
<path d="M45.4449 35.4332C47.7028 31.0657 48.6029 25.9527 47.6866 20.7362C45.4623 8.0752 33.396 -0.385414 20.7363 1.83883C8.07529 4.06432 -0.385324 16.1306 1.84017 28.7904C4.06441 41.4513 16.1307 49.9107 28.7917 47.6865C32.3126 47.0681 35.5081 45.6854 38.2397 43.7429L49.1553 45.3812L45.4449 35.4319V35.4332Z" fill="#FF0068"/>
<g opacity="0.5">
<path d="M27.1559 6.0907C39.08 7.50329 47.8237 17.6957 47.6915 29.4378C47.8735 28.6374 48.0194 27.822 48.1179 26.9891C49.629 14.2234 40.5063 2.65085 27.7419 1.13851C14.9774 -0.373827 3.40359 8.74882 1.8925 21.5145C1.794 22.3511 1.74288 23.1827 1.73291 24.0068C4.34241 12.5527 15.228 4.6781 27.1559 6.0907Z" fill="white"/>
</g>
<path d="M24.7511 49.5269C12.9604 49.5269 2.48498 41.0525 0.375434 29.0486C-1.98596 15.6009 7.03196 2.73792 20.4784 0.376525C33.9286 -1.98611 46.7879 7.03181 49.1505 20.4795C50.0569 25.6412 49.335 30.8265 47.0634 35.5194L50.5481 44.8639C50.7314 45.3564 50.6416 45.9112 50.31 46.3189C49.9784 46.7279 49.4547 46.9311 48.9348 46.8525L38.6015 45.3015C35.7177 47.249 32.5061 48.5444 29.0488 49.1516C27.6062 49.4047 26.1699 49.5281 24.7524 49.5281L24.7511 49.5269ZM24.7736 2.97231C23.5255 2.97231 22.2626 3.07953 20.9933 3.3027C15.2607 4.3101 10.2648 7.48937 6.92349 12.2545C3.58214 17.0197 2.29671 22.801 3.30411 28.5337C5.38248 40.3668 16.7044 48.3025 28.5351 46.2242C31.7555 45.6581 34.7303 44.4163 37.3797 42.5337C37.6926 42.3105 38.0804 42.2183 38.4619 42.2756L46.8839 43.5398L44.0549 35.9532C43.9091 35.5605 43.9352 35.1241 44.1272 34.7513C46.3315 30.4861 47.0572 25.7284 46.2256 20.9944C44.3691 10.4318 35.1505 2.97356 24.7761 2.97356L24.7736 2.97231Z" fill="black"/>
<g opacity="0.25">
<path d="M45.5597 35.2001C39.5864 41.035 30.9961 44.0185 22.1415 42.4775C12.3219 40.7682 4.68669 33.9321 1.49121 25.1997C1.5149 26.3866 1.62836 27.586 1.84031 28.7917C4.06455 41.4527 16.1308 49.912 28.7918 47.6878C32.3127 47.0694 35.5082 45.6867 38.2399 43.7442L49.1566 45.3825L45.4462 35.4332C45.4861 35.3572 45.5223 35.2786 45.5609 35.2013L45.5597 35.2001Z" fill="black"/>
</g>
<path d="M32.3065 18.2214C30.2917 16.2066 27.0264 16.5681 25.0129 18.5817L24.6999 18.8946L24.387 18.5817C22.3722 16.5669 19.1069 16.2066 17.0934 18.2214C15.0786 20.2362 15.0786 23.5015 17.0934 25.515L17.4063 25.8279L23.7387 32.1603C24.2698 32.6914 25.1301 32.6914 25.6612 32.1603L31.9936 25.8279L32.3065 25.515C34.3213 23.5002 34.3213 20.2349 32.3065 18.2214Z" fill="white"/>
</g>
<defs>
<clipPath id="clip0_502_1079">
<rect width="330" height="361.643" fill="white"/>
</clipPath>
</defs>
</svg>
