<svg width="114" height="150" viewBox="0 0 114 150" fill="none" xmlns="http://www.w3.org/2000/svg">
<g clip-path="url(#clip0_257_2)">
<path d="M88.3723 83.9095C88.2844 84.5603 88.3532 85.1826 88.541 85.7522H113.612C112.877 84.7068 111.66 84.0253 110.287 84.0253C110.022 84.0253 109.765 84.0498 109.516 84.0986C109.01 82.4294 107.457 81.2131 105.621 81.2131C105.554 81.2131 105.49 81.2153 105.426 81.2175C104.764 78.7316 102.498 76.9004 99.8033 76.9004C97.1087 76.9004 95.06 78.5584 94.2876 80.8624C93.6905 80.5472 93.0087 80.3794 92.282 80.4003C90.3154 80.4571 88.6356 81.9598 88.3723 83.9095Z" fill="white"/>
<path d="M25.2392 109.784C25.3271 110.434 25.2583 111.057 25.0705 111.626H0C0.734691 110.581 1.95104 109.899 3.32498 109.899C3.58911 109.899 3.84659 109.924 4.09518 109.973C4.60125 108.303 6.15498 107.087 7.9906 107.087C8.05719 107.087 8.12156 107.089 8.18593 107.092C8.84737 104.606 11.1136 102.774 13.8082 102.774C16.5028 102.774 18.5515 104.432 19.3239 106.736C19.921 106.421 20.6029 106.253 21.3296 106.274C23.2962 106.331 24.976 107.834 25.2392 109.784Z" fill="white"/>
<path d="M73.7954 62.3237C74.5301 59.9509 76.7387 58.2285 79.3534 58.2285C82.5674 58.2285 85.1732 60.8343 85.1732 64.0483C85.1732 64.0839 85.1732 64.1171 85.171 64.1527C85.4662 64.0839 85.7725 64.0483 86.0877 64.0483C87.9854 64.0483 89.5813 65.349 90.0297 67.107H69.3296C69.3296 64.5677 71.2984 62.4924 73.7954 62.3237Z" fill="white"/>
<path d="M21.6475 76.3071C22.3822 73.9343 24.5907 72.2119 27.2054 72.2119C30.4194 72.2119 33.0252 74.8177 33.0252 78.0317C33.0252 78.0673 33.0252 78.1005 33.023 78.1361C33.3182 78.0673 33.6245 78.0317 33.9397 78.0317C35.8375 78.0317 37.4334 79.3324 37.8817 81.0904H17.1816C17.1816 78.5511 19.1504 76.4758 21.6475 76.3071Z" fill="white"/>
<path d="M53.5445 82.8874C53.4575 82.8874 53.3723 82.847 53.3181 82.7707L32.3717 53.292C32.2829 53.1673 32.3122 52.9941 32.4369 52.9054C32.5617 52.8166 32.7352 52.8459 32.824 52.9706L52.1883 80.223C48.5983 71.6136 37.8967 44.2755 37.368 42.9247C37.3121 42.7822 37.3826 42.621 37.5251 42.5651C37.6681 42.5091 37.8288 42.5797 37.8847 42.7227C42.0887 53.4647 53.1379 81.5428 53.7718 82.4515C53.8593 82.5767 53.8286 82.7489 53.7039 82.8373C53.6555 82.8714 53.5996 82.8879 53.5445 82.8879V82.8874Z" fill="white"/>
<path d="M53.5447 82.8876C53.5367 82.8876 53.5288 82.8876 53.5208 82.8867C53.3854 82.8752 53.2784 82.7673 53.2677 82.6324L50.8124 51.6595C50.8004 51.5068 50.914 51.3731 51.0672 51.3612C51.2181 51.3465 51.3535 51.4633 51.3655 51.616L53.6886 80.921L63.3718 42.9289C63.4096 42.7806 63.561 42.69 63.7092 42.7286C63.8575 42.7664 63.9476 42.9173 63.9094 43.066L53.8129 82.6794C53.7813 82.8033 53.6699 82.8885 53.5443 82.8885L53.5447 82.8876Z" fill="white"/>
<path d="M53.5442 82.8878C53.486 82.8878 53.4274 82.8696 53.3777 82.8323C53.2694 82.751 53.2352 82.6032 53.2978 82.4825L70.8709 48.5047C70.941 48.3684 71.1084 48.3151 71.2447 48.3857C71.381 48.4563 71.4342 48.6236 71.3636 48.7595L54.5536 81.2612L86.4628 50.7766C86.5733 50.6714 86.7491 50.675 86.8552 50.786C86.9613 50.897 86.9568 51.0723 86.8463 51.1784L53.7359 82.811C53.6827 82.8616 53.6134 82.8878 53.5442 82.8878Z" fill="white"/>
<path d="M53.5434 81.6881C53.4187 81.6881 53.3077 81.6042 53.2753 81.4813L44.059 46.51C44.02 46.3621 44.1083 46.2099 44.2566 46.1708C44.4044 46.1322 44.5567 46.2205 44.5953 46.3684L53.4276 79.8818L57.3851 42.7939C57.4016 42.6412 57.537 42.5311 57.6906 42.5475C57.8428 42.5639 57.9534 42.7007 57.9369 42.8529L53.8191 81.44C53.8049 81.5732 53.6975 81.6771 53.5643 81.6873C53.5572 81.6877 53.5501 81.6881 53.543 81.6881H53.5434Z" fill="white"/>
<path d="M54.2046 81.6875C54.146 81.6875 54.087 81.6688 54.0368 81.6306C53.9152 81.5379 53.8917 81.3634 53.9845 81.2418L79.8602 47.2968C79.953 47.1752 80.127 47.1512 80.2491 47.2444C80.3708 47.3372 80.3943 47.5117 80.3015 47.6333L54.4257 81.5783C54.3711 81.6497 54.2885 81.6875 54.2046 81.6875Z" fill="white"/>
<path d="M44.1626 28.316C44.5515 29.5111 43.7036 30.1969 42.5086 30.5858C41.3135 30.9747 40.2242 30.9187 39.8357 29.7237C39.4473 28.5287 40.1007 27.2453 41.2953 26.8564C42.4899 26.4675 43.7738 27.1214 44.1626 28.316Z" fill="#34ED20"/>
<g opacity="0.3">
<path d="M42.5089 30.5847C41.6579 30.8609 40.8588 30.9137 40.3306 30.4857C41.4759 30.0933 42.2723 29.4119 41.8941 28.2484C41.7196 27.7143 41.3689 27.2873 40.9245 27.0156C41.0413 26.9521 41.1651 26.8989 41.2961 26.8562C42.4902 26.4678 43.775 27.1213 44.1634 28.3159C44.5518 29.51 43.703 30.1963 42.5089 30.5847Z" fill="black"/>
</g>
<path d="M41.3409 31.4642C39.8893 31.4642 39.3721 30.4512 39.2021 29.9291C38.7005 28.3874 39.547 26.7244 41.0888 26.2228C42.631 25.7207 44.2935 26.5677 44.7955 28.1095C45.0104 28.7709 45.2381 30.3974 42.7144 31.2187C42.1826 31.3918 41.7285 31.4642 41.3409 31.4642ZM41.9979 27.4103C41.8332 27.4103 41.6659 27.4356 41.5012 27.4893C40.6577 27.7641 40.1943 28.6737 40.4691 29.5176C40.5672 29.8203 40.7723 30.4503 42.3029 29.9526C43.8331 29.4545 43.628 28.8246 43.5299 28.5219C43.3088 27.8427 42.6767 27.4103 41.9984 27.4103H41.9979Z" fill="black"/>
<path d="M47.5274 11.2135C49.9543 18.674 47.1616 26.2709 41.2894 28.1811C35.4172 30.0913 28.6891 25.5921 26.2617 18.1316C23.8348 10.671 26.9707 4.12982 32.8433 2.21918C38.7155 0.308981 45.1005 3.75293 47.5274 11.2135Z" fill="#34ED20"/>
<g opacity="0.3">
<path d="M41.2883 28.1812C36.1938 29.8388 30.4521 26.671 27.437 20.9262C30.1227 23.9648 33.8686 25.3982 37.2726 24.2902C42.2574 22.6681 44.6266 16.2224 42.5677 9.89116C41.0508 5.22598 37.7098 2.41107 34.0634 1.90189C39.5761 0.801848 45.2671 4.26755 47.5276 11.2145C49.955 18.6737 47.1618 26.2719 41.2878 28.1816L41.2883 28.1812Z" fill="black"/>
</g>
<g opacity="0.6">
<path d="M34.9344 27.9422C31.178 26.5203 27.8255 22.94 26.2611 18.1319C23.8342 10.6705 26.9714 4.13062 32.8431 2.22042C35.6989 1.29129 38.6767 1.62778 41.2621 3.07985C39.0678 2.25549 36.6799 2.18136 34.3724 2.93158C32.5368 3.52822 30.9684 4.57809 29.757 5.96535C30.3705 8.57384 29.5261 10.3167 27.2262 11.1921C26.7609 13.4974 26.9034 16.1085 27.7926 18.8431C29.1412 22.9889 31.815 26.2189 34.9344 27.9417V27.9422Z" fill="white"/>
</g>
<path d="M38.5235 29.2839C33.1609 29.2839 27.7668 24.9117 25.628 18.3381C24.425 14.6403 24.4965 10.9087 25.8287 7.83006C27.1374 4.8065 29.555 2.58911 32.6367 1.58673C35.7184 0.583912 38.9781 0.954588 41.8152 2.62951C44.7038 4.33461 46.9572 7.31022 48.1602 11.0081C50.6968 18.8056 47.7069 26.794 41.4947 28.8151C40.5194 29.1326 39.5219 29.2839 38.5231 29.2839H38.5235ZM36.129 2.35561C35.1151 2.35561 34.0816 2.51719 33.0491 2.85324C27.255 4.73858 24.6665 11.0773 26.895 17.9266C29.2043 25.0258 35.5683 29.3416 41.0832 27.5491C46.5967 25.7552 49.2039 18.5201 46.8941 11.4201C45.0629 5.79201 40.8044 2.35561 36.1295 2.35561H36.129Z" fill="black"/>
<path d="M86.1148 149.334H90.661V116.928H77.4175" fill="#925BE8"/>
<path d="M57.0372 116.928H25.7739V149.334H57.0372V116.928Z" fill="#925BE8"/>
<path d="M59.3334 116.928H25.2935V126.681H59.3334V116.928Z" fill="#76B5F4"/>
<g opacity="0.3">
<path d="M90.6616 116.928H84.8901V149.334H90.6616V116.928Z" fill="black"/>
</g>
<g opacity="0.3">
<path d="M25.7739 118.382L29.6214 123.734H57.2924V116.928H25.7739" fill="black"/>
</g>
<path d="M92.4216 116.928H22.9038C21.9436 116.928 21.2276 116.043 21.4278 115.104L25.2384 97.2219C25.4741 96.1148 26.4521 95.3232 27.5841 95.3232H87.7418C88.8738 95.3232 89.8518 96.1148 90.0875 97.2219L93.8981 115.104C94.0983 116.043 93.3823 116.928 92.4221 116.928H92.4216Z" fill="#6448A0"/>
<g opacity="0.6">
<path d="M93.8019 116.027L90.0885 98.587C89.851 97.4817 88.8743 96.6893 87.7423 96.6893H27.5842C26.4522 96.6893 25.4734 97.4817 25.2381 98.587L21.5225 116.027C21.3982 115.747 21.3582 115.429 21.427 115.103L25.2381 97.222C25.4734 96.1144 26.4522 95.3242 27.5842 95.3242H87.7423C88.8743 95.3242 89.851 96.1144 90.0885 97.222L93.8973 115.103C93.9661 115.429 93.9262 115.747 93.8019 116.027Z" fill="white"/>
</g>
<path d="M92.4217 117.593H22.904C22.2443 117.593 21.6281 117.299 21.2135 116.787C20.7984 116.274 20.6395 115.61 20.7767 114.965L24.5873 97.0828C24.887 95.6769 26.1473 94.6572 27.5842 94.6572H87.7419C89.1789 94.6572 90.4396 95.6774 90.7388 97.0828L94.5495 114.965C94.6871 115.61 94.5277 116.274 94.1131 116.787C93.698 117.299 93.0818 117.593 92.4222 117.593H92.4217ZM27.5838 95.9894C26.7714 95.9894 26.0589 96.5661 25.8893 97.3607L22.0787 115.243C22.0254 115.493 22.0871 115.75 22.2478 115.949C22.4085 116.148 22.6478 116.262 22.9035 116.262H92.4213C92.677 116.262 92.9158 116.148 93.077 115.949C93.2377 115.75 93.2994 115.493 93.2461 115.243L89.4355 97.3607C89.2663 96.5661 88.5534 95.9894 87.741 95.9894H27.5842H27.5838Z" fill="black"/>
<path d="M57.038 150H25.7748C25.4072 150 25.1089 149.702 25.1089 149.334V116.928C25.1089 116.56 25.4072 116.262 25.7748 116.262H57.038C57.4056 116.262 57.7039 116.56 57.7039 116.928V149.334C57.7039 149.702 57.4056 150 57.038 150ZM26.4407 148.668H56.3721V117.593H26.4407V148.668Z" fill="black"/>
<path d="M57.0379 127.493H25.7746C25.4683 127.493 25.2197 127.244 25.2197 126.938C25.2197 126.631 25.4683 126.383 25.7746 126.383H57.0379C57.3442 126.383 57.5928 126.631 57.5928 126.938C57.5928 127.244 57.3442 127.493 57.0379 127.493Z" fill="black"/>
<path d="M57.0377 122.376H25.7745C25.5294 122.376 25.3306 122.177 25.3306 121.932C25.3306 121.687 25.5294 121.488 25.7745 121.488H57.0377C57.2828 121.488 57.4816 121.687 57.4816 121.932C57.4816 122.177 57.2828 122.376 57.0377 122.376Z" fill="black"/>
<path d="M52.0397 129.802H41.6279V149.334H52.0397V129.802Z" fill="#8D7BBF"/>
<path d="M52.0399 149.889H41.6281C41.3218 149.889 41.0732 149.641 41.0732 149.335V129.802C41.0732 129.496 41.3218 129.247 41.6281 129.247H52.0399C52.3462 129.247 52.5948 129.496 52.5948 129.802V149.335C52.5948 149.641 52.3462 149.889 52.0399 149.889ZM42.183 148.78H51.485V130.357H42.183V148.78Z" fill="black"/>
<path d="M50.2641 131.799H43.4033V138.735H50.2641V131.799Z" fill="#F2C819"/>
<path d="M50.2641 140.899H43.4033V146.448H50.2641V140.899Z" fill="#F2C819"/>
<path d="M50.2642 139.18H43.4034C43.1583 139.18 42.9595 138.981 42.9595 138.736V131.799C42.9595 131.554 43.1583 131.355 43.4034 131.355H50.2642C50.5093 131.355 50.7081 131.554 50.7081 131.799V138.736C50.7081 138.981 50.5093 139.18 50.2642 139.18ZM43.8473 138.292H49.8203V132.243H43.8473V138.292Z" fill="black"/>
<path d="M50.2642 146.893H43.4034C43.1583 146.893 42.9595 146.694 42.9595 146.449V140.9C42.9595 140.655 43.1583 140.456 43.4034 140.456H50.2642C50.5093 140.456 50.7081 140.655 50.7081 140.9V146.449C50.7081 146.694 50.5093 146.893 50.2642 146.893ZM43.8473 146.005H49.8203V141.344H43.8473V146.005Z" fill="black"/>
<path d="M37.7233 142.527H25.7743C25.4067 142.527 25.1084 142.229 25.1084 141.861C25.1084 141.493 25.4067 141.195 25.7743 141.195H37.7233C38.0909 141.195 38.3892 141.493 38.3892 141.861C38.3892 142.229 38.0909 142.527 37.7233 142.527Z" fill="black"/>
<path d="M28.6412 149.778C28.3961 149.778 28.1973 149.579 28.1973 149.334V141.862C28.1973 141.617 28.3961 141.418 28.6412 141.418C28.8862 141.418 29.0851 141.617 29.0851 141.862V149.334C29.0851 149.579 28.8862 149.778 28.6412 149.778Z" fill="black"/>
<path d="M31.6378 149.778C31.3927 149.778 31.1938 149.579 31.1938 149.334V141.862C31.1938 141.617 31.3927 141.418 31.6378 141.418C31.8828 141.418 32.0817 141.617 32.0817 141.862V149.334C32.0817 149.579 31.8828 149.778 31.6378 149.778Z" fill="black"/>
<path d="M34.8565 149.778C34.6115 149.778 34.4126 149.579 34.4126 149.334V141.862C34.4126 141.617 34.6115 141.418 34.8565 141.418C35.1016 141.418 35.3004 141.617 35.3004 141.862V149.334C35.3004 149.579 35.1016 149.778 34.8565 149.778Z" fill="black"/>
<path d="M37.723 129.802H30.6758V141.861H37.723V129.802Z" fill="#F2C819"/>
<g opacity="0.55">
<path d="M37.723 129.802V131.375L30.6758 139.546V135.391L35.4946 129.802H37.723Z" fill="white"/>
</g>
<g opacity="0.55">
<path d="M37.7231 133.708V136.387L33.002 141.861H30.6958L37.7231 133.708Z" fill="white"/>
</g>
<path d="M37.7233 142.417H30.676C30.3697 142.417 30.1211 142.168 30.1211 141.862V129.802C30.1211 129.496 30.3697 129.247 30.676 129.247H37.7233C38.0296 129.247 38.2782 129.496 38.2782 129.802V141.862C38.2782 142.168 38.0296 142.417 37.7233 142.417ZM31.2309 141.307H37.1684V130.357H31.2309V141.307Z" fill="black"/>
<path d="M90.6608 150H86.1146C85.747 150 85.4487 149.702 85.4487 149.334C85.4487 148.966 85.747 148.668 86.1146 148.668H89.9949V116.928C89.9949 116.56 90.2933 116.262 90.6608 116.262C91.0284 116.262 91.3267 116.56 91.3267 116.928V149.334C91.3267 149.702 91.0284 150 90.6608 150Z" fill="black"/>
<path d="M44.9615 102.717V109.676H32.9272V102.717L38.9442 95.2344L44.9615 102.717Z" fill="#925BE8"/>
<path d="M46.2168 104.279L38.944 95.2342L31.6712 104.279L28.9038 102.053L37.5603 91.2878C37.8972 90.8687 38.4064 90.625 38.944 90.625C39.4816 90.625 39.9908 90.8687 40.3277 91.2878L48.9842 102.053L46.2168 104.279Z" fill="#509FEF"/>
<g opacity="0.3">
<path d="M48.9831 102.054L46.2174 104.278L45.92 103.909L47.3184 102.784L38.6619 92.0189C38.3733 91.6571 37.9516 91.4241 37.4966 91.3686L37.561 91.2887C37.8961 90.8692 38.4066 90.625 38.9438 90.625C39.4809 90.625 39.9914 90.8692 40.3266 91.2887L48.9831 102.054Z" fill="black"/>
</g>
<g opacity="0.6">
<path d="M40.449 91.4418C40.2759 91.3841 40.0916 91.3552 39.9052 91.3552C39.368 91.3552 38.8597 91.5994 38.5224 92.0189L29.8659 102.784L31.6904 104.251L31.6704 104.278L28.9048 102.054L37.5613 91.2887C37.8964 90.8692 38.4069 90.625 38.9441 90.625C39.4812 90.625 39.9917 90.8692 40.3269 91.2887L40.449 91.4418Z" fill="white"/>
</g>
<path d="M46.2167 104.944C46.1927 104.944 46.1688 104.943 46.1448 104.94C45.969 104.921 45.8083 104.833 45.6978 104.696L38.9439 96.2969L32.1901 104.696C32.0796 104.833 31.9184 104.921 31.7431 104.94C31.5673 104.96 31.3915 104.908 31.2539 104.798L28.4865 102.572C28.1997 102.341 28.1544 101.922 28.3848 101.635L37.0413 90.8704C37.5074 90.291 38.2008 89.959 38.9439 89.959C39.6871 89.959 40.3805 90.291 40.8466 90.8704L49.5031 101.635C49.7335 101.922 49.6882 102.341 49.4014 102.572L46.634 104.798C46.515 104.893 46.3676 104.944 46.2167 104.944ZM38.9439 94.5682C39.1455 94.5682 39.3364 94.6597 39.4629 94.8168L46.3184 103.342L48.0479 101.951L39.8087 91.7049C39.5969 91.4417 39.2818 91.2908 38.9439 91.2908C38.6061 91.2908 38.2909 91.4417 38.0792 91.7054L29.84 101.952L31.5695 103.343L38.425 94.8173C38.5515 94.6601 38.7424 94.5687 38.9439 94.5687V94.5682Z" fill="black"/>
<path d="M44.9614 110.343H32.9271C32.5595 110.343 32.2612 110.045 32.2612 109.677V102.718C32.2612 102.35 32.5595 102.052 32.9271 102.052C33.2947 102.052 33.593 102.35 33.593 102.718V109.012H44.2955V102.718C44.2955 102.35 44.5938 102.052 44.9614 102.052C45.329 102.052 45.6273 102.35 45.6273 102.718V109.677C45.6273 110.045 45.329 110.343 44.9614 110.343Z" fill="black"/>
<path d="M41.108 101.446H36.4468V106.718H41.108V101.446Z" fill="#F2C819"/>
<path d="M41.1082 107.272H36.447C36.1407 107.272 35.8921 107.023 35.8921 106.717V101.446C35.8921 101.139 36.1407 100.891 36.447 100.891H41.1082C41.4145 100.891 41.6631 101.139 41.6631 101.446V106.717C41.6631 107.023 41.4145 107.272 41.1082 107.272ZM37.0019 106.162H40.5533V102H37.0019V106.162Z" fill="black"/>
<path d="M34.1998 142.305C33.9547 142.305 33.7559 142.106 33.7559 141.861V129.801C33.7559 129.556 33.9547 129.357 34.1998 129.357C34.4448 129.357 34.6437 129.556 34.6437 129.801V141.861C34.6437 142.106 34.4448 142.305 34.1998 142.305Z" fill="black"/>
<path d="M37.7231 136.276H30.6759C30.4308 136.276 30.2319 136.077 30.2319 135.832C30.2319 135.587 30.4308 135.388 30.6759 135.388H37.7231C37.9682 135.388 38.167 135.587 38.167 135.832C38.167 136.077 37.9682 136.276 37.7231 136.276Z" fill="black"/>
<path d="M57.0378 80.6367H50.7119V98.9347H57.0378V80.6367Z" fill="#8D7BBF"/>
<g opacity="0.6">
<path d="M52.0819 80.6367H50.7124V98.9352H52.0819V80.6367Z" fill="white"/>
</g>
<path d="M57.0377 99.6005H50.7118C50.3442 99.6005 50.0459 99.3026 50.0459 98.9346V80.6366C50.0459 80.2686 50.3442 79.9707 50.7118 79.9707H57.0377C57.4052 79.9707 57.7036 80.2686 57.7036 80.6366V98.9346C57.7036 99.3026 57.4052 99.6005 57.0377 99.6005ZM51.3777 98.2687H56.3718V81.3025H51.3777V98.2687Z" fill="black"/>
<path d="M86.1145 123.734H57.0376V149.334H86.1145V123.734Z" fill="#925BE8"/>
<path d="M84.8901 113.029V118.148L88.6857 120.405L87.2802 123.734H55.8727L54.4668 120.405L58.2304 118.148V113.029L71.5773 86.7188L84.8901 113.029Z" fill="#925BE8"/>
<path d="M88.6857 120.405H54.4668L56.072 123.735H86.9619L88.6857 120.405Z" fill="#5D3A84"/>
<g opacity="0.55">
<path d="M88.6856 120.406L88.1506 121.441H54.9652L54.4658 120.406H88.6856Z" fill="white"/>
</g>
<path d="M86.8991 116.928L71.5771 86.7188V86.7166L56.253 116.928H50.7119L68.8901 81.0872C70.0057 78.8876 73.1473 78.8876 74.2629 81.0872L92.4411 116.928H86.8996H86.8991Z" fill="#509FEF"/>
<g opacity="0.3">
<path d="M92.4411 116.928H89.6665L71.4879 81.0881C71.1794 80.4822 70.7199 80.0449 70.1895 79.7719C71.5834 79.055 73.4545 79.4944 74.2624 81.0881L92.4411 116.928Z" fill="black"/>
</g>
<g opacity="0.6">
<path d="M73.9784 80.6326C72.6 80.0089 70.8199 80.4706 70.0363 82.0132L52.3283 116.928H50.7124L68.8888 81.0876C69.9209 79.0522 72.6888 78.9013 73.9784 80.6326Z" fill="white"/>
</g>
<path d="M92.4407 117.593H86.8997C86.6489 117.593 86.4194 117.453 86.3057 117.229L71.5768 88.1897L56.8471 117.229C56.7334 117.453 56.5039 117.593 56.2531 117.593H50.7116C50.4803 117.593 50.2655 117.473 50.1443 117.276C50.0231 117.079 50.0133 116.832 50.1181 116.626L68.2962 80.7856C68.9262 79.543 70.1834 78.7715 71.5764 78.7715C72.9694 78.7715 74.2262 79.543 74.8565 80.7856L93.0347 116.626C93.1395 116.832 93.1293 117.079 93.0085 117.276C92.8873 117.473 92.6725 117.593 92.4412 117.593H92.4407ZM87.3086 116.262H91.3567L73.669 81.3884C73.2611 80.584 72.4789 80.1033 71.5768 80.1033C70.6748 80.1033 69.8926 80.5836 69.4846 81.3884L51.797 116.262H55.8451L70.9842 86.4154C71.1236 86.1406 71.4326 85.9977 71.7331 86.0691C71.9409 86.1188 72.106 86.2627 72.1881 86.4491L87.3094 116.262L87.3086 116.262Z" fill="black"/>
<path d="M87.2798 124.4H55.8723C55.6046 124.4 55.3631 124.24 55.2588 123.993L53.8529 120.664C53.7237 120.358 53.8395 120.004 54.1241 119.834L57.5645 117.771V113.029C57.5645 112.661 57.8628 112.363 58.2304 112.363C58.5979 112.363 58.8963 112.661 58.8963 113.029V118.148C58.8963 118.382 58.7733 118.599 58.5726 118.719L55.3049 120.679L56.314 123.068H86.8381L87.8462 120.681L84.5492 118.721C84.3472 118.6 84.2238 118.383 84.2238 118.148V113.029C84.2238 112.661 84.5221 112.363 84.8897 112.363C85.2573 112.363 85.5556 112.661 85.5556 113.029V117.769L89.0257 119.832C89.3116 120.002 89.4283 120.357 89.2987 120.664L87.8928 123.993C87.7885 124.24 87.547 124.4 87.2793 124.4H87.2798Z" fill="black"/>
<path d="M75.3858 99.8123V112.151C75.3858 112.637 74.9929 113.03 74.5068 113.03H68.6448C68.1854 113.03 67.808 112.675 67.7725 112.224C67.7681 112.2 67.7681 112.176 67.7681 112.151V99.8123C67.7681 99.3284 68.1609 98.9355 68.6448 98.9355H74.5068C74.9929 98.9355 75.3858 99.3284 75.3858 99.8123Z" fill="#F2C819"/>
<g opacity="0.55">
<path d="M75.3858 99.8123V100.274L67.7681 109.794V105.768L73.235 98.9355H74.5068C74.9929 98.9355 75.3858 99.3284 75.3858 99.8123Z" fill="white"/>
</g>
<g opacity="0.55">
<path d="M75.3857 102.709V105.022L68.9777 113.03H68.6448C68.1853 113.03 67.808 112.675 67.7725 112.224L75.3857 102.709Z" fill="white"/>
</g>
<path d="M74.507 113.584H68.6454C67.8557 113.584 67.2129 112.942 67.2129 112.152V99.8124C67.2129 99.0227 67.8557 98.3799 68.6454 98.3799H74.507C75.2967 98.3799 75.9395 99.0227 75.9395 99.8124V112.152C75.9395 112.941 75.2967 113.584 74.507 113.584ZM68.6454 99.4897C68.4674 99.4897 68.3227 99.6344 68.3227 99.8124V112.152C68.3227 112.329 68.4674 112.474 68.6454 112.474H74.507C74.685 112.474 74.8297 112.33 74.8297 112.152V99.8124C74.8297 99.6344 74.685 99.4897 74.507 99.4897H68.6454Z" fill="black"/>
<path d="M76.7549 127.329V140.731C76.7549 141.09 76.4642 141.381 76.1068 141.381H67.0463C66.6868 141.381 66.396 141.09 66.396 140.731V127.329C66.396 126.971 66.6868 126.681 67.0463 126.681H76.1068C76.4642 126.681 76.7549 126.971 76.7549 127.329Z" fill="#F2C819"/>
<g opacity="0.55">
<path d="M75.7339 126.681L66.396 137.508V133.351L72.1492 126.681H75.7339Z" fill="white"/>
</g>
<g opacity="0.55">
<path d="M76.7549 127.828V130.509L67.3793 141.381H67.0463C66.6868 141.381 66.396 141.09 66.396 140.731V139.843L76.7549 127.828Z" fill="white"/>
</g>
<path d="M63.6023 141.381H59.8698C59.5737 141.381 59.3335 141.14 59.3335 140.844V129.086C59.3335 128.525 59.7002 128.03 60.2369 127.867L63.1841 126.971C63.6591 126.827 64.1385 127.182 64.1385 127.679V140.845C64.1385 141.141 63.8984 141.381 63.6023 141.381V141.381Z" fill="#F2C819"/>
<path d="M79.5499 141.381H83.2824C83.5785 141.381 83.8187 141.14 83.8187 140.844V129.086C83.8187 128.525 83.452 128.03 82.9153 127.867L79.9681 126.971C79.4931 126.827 79.0137 127.182 79.0137 127.679V140.845C79.0137 141.141 79.2538 141.381 79.5499 141.381V141.381Z" fill="#F2C819"/>
<path d="M76.1062 141.935H67.0466C66.3825 141.935 65.8423 141.395 65.8423 140.731V127.329C65.8423 126.665 66.3825 126.125 67.0466 126.125H76.1062C76.7703 126.125 77.3106 126.665 77.3106 127.329V140.731C77.3106 141.395 76.7703 141.935 76.1062 141.935ZM67.0466 127.234C66.9947 127.234 66.9521 127.277 66.9521 127.329V140.73C66.9521 140.782 66.9943 140.825 67.0466 140.825H76.1062C76.1582 140.825 76.2008 140.782 76.2008 140.73V127.329C76.2008 127.277 76.1586 127.234 76.1062 127.234H67.0466Z" fill="black"/>
<path d="M63.602 141.935H59.8695C59.268 141.935 58.7783 141.445 58.7783 140.843V129.085C58.7783 128.275 59.2995 127.571 60.075 127.335L63.0222 126.439C63.4186 126.318 63.8368 126.391 64.1693 126.637C64.5023 126.884 64.6927 127.263 64.6927 127.677V140.843C64.6927 141.445 64.2031 141.935 63.6015 141.935H63.602ZM59.8881 140.825H63.5838V127.677C63.5838 127.597 63.5372 127.55 63.5092 127.529C63.4812 127.509 63.4231 127.478 63.3458 127.501L60.3986 128.397C60.0937 128.49 59.8886 128.766 59.8886 129.085V140.825H59.8881Z" fill="black"/>
<path d="M83.2826 141.935H79.5501C78.9486 141.935 78.459 141.446 78.459 140.844V127.677C78.459 127.263 78.6499 126.884 78.9824 126.638C79.3153 126.391 79.733 126.318 80.1295 126.439L83.0767 127.336C83.8526 127.571 84.3738 128.275 84.3738 129.085V140.844C84.3738 141.445 83.8842 141.935 83.2826 141.935ZM79.5688 140.825H83.2644V129.085C83.2644 128.767 83.0594 128.49 82.7544 128.397L79.8072 127.501C79.7299 127.478 79.6713 127.509 79.6438 127.53C79.6158 127.55 79.5692 127.597 79.5692 127.678V140.825H79.5688Z" fill="black"/>
<path d="M86.1149 150H57.038C56.6704 150 56.3721 149.702 56.3721 149.334V123.735C56.3721 123.367 56.6704 123.069 57.038 123.069H86.1149C86.4824 123.069 86.7807 123.367 86.7807 123.735V149.334C86.7807 149.702 86.4824 150 86.1149 150ZM57.7038 148.669H85.449V124.401H57.7038V148.669Z" fill="black"/>
<path d="M88.6854 120.96H54.4665C54.1602 120.96 53.9116 120.712 53.9116 120.405C53.9116 120.099 54.1602 119.851 54.4665 119.851H88.6854C88.9917 119.851 89.2403 120.099 89.2403 120.405C89.2403 120.712 88.9917 120.96 88.6854 120.96Z" fill="black"/>
<path d="M75.3845 106.426H67.7677C67.5226 106.426 67.3237 106.227 67.3237 105.982C67.3237 105.737 67.5226 105.538 67.7677 105.538H75.3845C75.6295 105.538 75.8284 105.737 75.8284 105.982C75.8284 106.227 75.6295 106.426 75.3845 106.426Z" fill="black"/>
<path d="M76.755 133.586H66.397V134.474H76.755V133.586Z" fill="black"/>
<path d="M72.0202 126.68H71.1323V141.38H72.0202V126.68Z" fill="black"/>
<path d="M61.2918 141.38C61.2918 140.826 61.2878 127.797 61.2918 127.406L62.1797 127.415C62.1757 127.801 62.1797 141.245 62.1797 141.38H61.2918Z" fill="black"/>
<path d="M64.1028 133.588L59.2974 133.953L59.3646 134.838L64.1699 134.474L64.1028 133.588Z" fill="black"/>
<path d="M81.86 141.38H80.9722C80.9722 141.244 80.9762 127.801 80.9722 127.415L81.86 127.406C81.864 127.797 81.86 140.826 81.86 141.38Z" fill="black"/>
<path d="M79.0517 133.596L78.9844 134.481L83.7897 134.847L83.8571 133.962L79.0517 133.596Z" fill="black"/>
<path d="M88.4728 143.341H54.6792V146.532H88.4728V143.341Z" fill="#5D3A84"/>
<g opacity="0.55">
<path d="M88.4723 143.341H54.6787V144.451H88.4723V143.341Z" fill="white"/>
</g>
<path d="M88.4727 147.198H54.6791C54.3115 147.198 54.0132 146.9 54.0132 146.532V143.341C54.0132 142.973 54.3115 142.675 54.6791 142.675H88.4727C88.8402 142.675 89.1385 142.973 89.1385 143.341V146.532C89.1385 146.9 88.8402 147.198 88.4727 147.198ZM55.345 145.866H87.8068V144.007H55.345V145.866Z" fill="black"/>
<g opacity="0.3">
<path d="M58.5875 117.982L72.904 90.6256L71.4244 87.333L58.4766 113.029" fill="black"/>
</g>
<g opacity="0.3">
<path d="M82.0781 107.422V117.982L82.8923 120.405H85.2597H87.7013L84.668 118.382L84.8899 113.265L82.0781 107.422Z" fill="black"/>
</g>
<g opacity="0.3">
<path d="M86.115 123.735V143.452H79.0145V126.715C79.0145 126.008 78.4414 125.435 77.7346 125.435H64.1386L57.3644 127.828L57.0381 123.735H79.0145V123.291L86.115 123.735Z" fill="black"/>
</g>
<path d="M56.5898 116.928H57.9957V114.148L56.5898 116.928Z" fill="black"/>
<path d="M84.8901 113.599V116.928H86.7852L84.8901 113.599Z" fill="black"/>
<g opacity="0.3">
<path d="M85.7222 146.532H78.7305V148.89H85.7222V146.532Z" fill="black"/>
</g>
<path d="M41.4059 116.928H37.7231V149.334H41.4059V116.928Z" fill="#509FEF"/>
<path d="M41.4058 150H37.723C37.3554 150 37.0571 149.702 37.0571 149.334V116.928C37.0571 116.56 37.3554 116.262 37.723 116.262H41.4058C41.7734 116.262 42.0717 116.56 42.0717 116.928V149.334C42.0717 149.702 41.7734 150 41.4058 150ZM38.3889 148.668H40.7399V117.593H38.3889V148.668Z" fill="black"/>
<g opacity="0.3">
<path d="M41.1083 97.9254L32.9272 106.197L33.1377 102.456L38.9442 95.2344L41.1083 97.9254Z" fill="black"/>
</g>
<g opacity="0.3">
<path d="M38.4258 109.794L46.1207 116.484H51.2258L55.0209 108.431L48.4837 102.456L46.2166 104.279L45.4602 103.339V109.677L38.4258 109.794Z" fill="black"/>
</g>
<g opacity="0.3">
<path d="M50.7119 98.9348L56.5899 104.365L59.7772 98.9348L57.2926 96.6895V98.9357L50.7119 98.9348Z" fill="black"/>
</g>
<g opacity="0.3">
<path d="M82.0781 96.4961L92.2608 107.422L93.9202 115.593L92.4406 116.928L82.0781 96.4961Z" fill="black"/>
</g>
<path d="M64.0569 29.1842C63.8407 30.4219 62.7704 30.6314 61.5327 30.4152C60.2951 30.199 59.3584 29.6397 59.5746 28.402C59.7908 27.1644 60.969 26.336 62.2071 26.5517C63.4447 26.7679 64.2731 27.9461 64.0573 29.1842H64.0569Z" fill="#EF2929"/>
<g opacity="0.3">
<path d="M61.532 30.4151C60.6508 30.2606 59.9201 29.933 59.6533 29.3075C60.8492 29.497 61.872 29.2675 62.0825 28.0627C62.1783 27.5091 62.0683 26.9676 61.8028 26.5196C61.9355 26.5183 62.07 26.5294 62.2059 26.5529C63.4431 26.7687 64.2719 27.9477 64.0561 29.1849C63.8404 30.4222 62.7688 30.6308 61.5316 30.4151H61.532Z" fill="black"/>
</g>
<path d="M62.3068 31.1544C62.0405 31.1544 61.7453 31.1286 61.4181 31.0713C58.8034 30.615 58.7989 28.9725 58.9184 28.2875C59.0533 27.5138 59.4817 26.8385 60.1245 26.3871C60.7673 25.9352 61.5477 25.7611 62.3215 25.8961C63.0952 26.0311 63.77 26.4594 64.2219 27.1018C64.6738 27.7446 64.8483 28.525 64.7129 29.2988C64.6081 29.8981 64.1664 31.1544 62.3068 31.1544ZM61.8118 27.1835C61.4838 27.1835 61.1642 27.2838 60.8898 27.4765C60.5382 27.7237 60.3038 28.0931 60.2302 28.5161C60.1755 28.83 60.0615 29.4825 61.6467 29.7591C63.2315 30.0352 63.3456 29.3831 63.4006 29.0693C63.4748 28.6458 63.3793 28.2187 63.1321 27.8671C62.8848 27.5155 62.5155 27.2811 62.092 27.2074C61.9983 27.191 61.9046 27.183 61.8118 27.183V27.1835Z" fill="black"/>
<path d="M75.0368 15.6478C73.6882 23.3765 67.6632 28.7812 61.5802 27.7198C55.4967 26.6584 51.6585 19.5325 53.0072 11.8039C54.3558 4.07517 60.1898 -0.236199 66.2733 0.825219C72.3568 1.88664 76.3859 7.9191 75.0372 15.6482L75.0368 15.6478Z" fill="#EF2929"/>
<g opacity="0.3">
<path d="M61.579 27.7196C56.3012 26.7989 52.7112 21.3111 52.737 14.8236C53.6874 18.7661 56.3261 21.7866 59.853 22.4014C65.0172 23.3021 70.1285 18.716 71.2738 12.1574C72.1177 7.32491 70.4836 3.27367 67.5 1.11621C72.8861 2.72543 76.2924 8.45247 75.0369 15.6489C73.6892 23.3767 67.6634 28.7828 61.579 27.7196Z" fill="black"/>
</g>
<g opacity="0.6">
<path d="M56.0765 24.5335C53.4231 21.5184 52.1371 16.7852 53.0059 11.804C54.3549 4.07442 60.1894 -0.235173 66.2716 0.826245C69.2303 1.34253 71.7039 3.03431 73.3082 5.52738C71.7554 3.77122 69.68 2.58817 67.2899 2.17044C65.3886 1.83839 63.5113 2.03149 61.7911 2.69027C61.1119 5.28234 59.5497 6.42721 57.1077 6.12401C55.6174 7.94321 54.5205 10.3173 54.026 13.1495C53.2767 17.444 54.1268 21.5499 56.0765 24.5335Z" fill="white"/>
</g>
<path d="M63.1283 28.5208C62.5739 28.5208 62.0185 28.4733 61.4654 28.3765C55.0298 27.2534 50.9413 19.7679 52.3508 11.6899C53.0193 7.85929 54.8296 4.59513 57.4479 2.49848C60.02 0.439573 63.1949 -0.387454 66.3872 0.169225C69.5794 0.726347 72.2864 2.57972 74.0093 5.38797C75.7632 8.24728 76.3608 11.9318 75.6927 15.7624C75.0148 19.6468 73.1809 23.0965 70.5285 25.4759C68.3058 27.47 65.7284 28.5203 63.1283 28.5203V28.5208ZM64.4517 1.33274C62.2329 1.33274 60.0892 2.09052 58.2807 3.53859C55.9155 5.43192 54.2756 8.40798 53.663 11.919C52.3796 19.2734 55.9825 26.0681 61.6945 27.0647C64.4308 27.5415 67.2528 26.6261 69.6393 24.4851C72.0702 22.3041 73.754 19.1252 74.3809 15.5338C75.619 8.43905 72.1613 2.52912 66.159 1.48146C65.5881 1.38202 65.0177 1.33274 64.4521 1.33274H64.4517Z" fill="black"/>
<path d="M33.847 50.6154C34.4312 51.7279 33.7107 52.5469 32.5983 53.1311C31.4858 53.7153 30.4026 53.8432 29.8184 52.7307C29.2342 51.6182 29.6626 50.2429 30.7751 49.6587C31.8875 49.0745 33.2628 49.5029 33.847 50.6154Z" fill="#EA34E2"/>
<g opacity="0.3">
<path d="M32.5977 53.1309C31.8053 53.546 31.0262 53.7324 30.4336 53.3995C31.4968 52.8202 32.1671 52.0144 31.5989 50.9313C31.337 50.4341 30.9197 50.0723 30.4358 49.8792C30.5401 49.7971 30.6533 49.7238 30.7754 49.6594C31.8874 49.0757 33.2636 49.5041 33.8474 50.6161C34.4311 51.7281 33.7097 52.5472 32.5977 53.1309Z" fill="black"/>
</g>
<path d="M31.119 54.1296C30.1179 54.1296 29.587 53.4846 29.3269 52.9888C28.6015 51.6073 29.1355 49.8929 30.517 49.1675C31.8985 48.4426 33.6129 48.9762 34.3383 50.3581C34.7205 51.0861 35.0362 52.4783 32.8561 53.6231C32.1604 53.988 31.5882 54.1301 31.119 54.1301V54.1296ZM31.8293 49.9532C31.5602 49.9532 31.2872 50.0167 31.0329 50.1503C30.193 50.5911 29.8685 51.633 30.3093 52.4729C30.4615 52.7619 30.8167 53.4398 32.3398 52.6398C33.8629 51.8403 33.5073 51.1629 33.3555 50.8735C33.0483 50.2879 32.449 49.9528 31.8293 49.9528V49.9532Z" fill="black"/>
<path d="M34.2888 33.1916C37.9356 40.1381 36.4596 48.0963 30.9918 50.9667C25.524 53.8371 18.1354 50.533 14.4885 43.5865C10.8417 36.64 12.8336 29.6646 18.3014 26.7942C23.7692 23.9238 30.642 26.2455 34.2884 33.1916H34.2888Z" fill="#EA34E2"/>
<g opacity="0.3">
<path d="M30.9908 50.9666C26.2475 53.457 20.0548 51.2995 16.1172 46.1434C19.2757 48.687 23.2088 49.4706 26.3785 47.8059C31.0197 45.3687 32.2715 38.6167 29.1774 32.7214C26.8978 28.3776 23.1312 26.1646 19.451 26.2756C24.7004 24.2647 30.8931 26.724 34.2891 33.1919C37.936 40.1371 36.4599 48.0966 30.9908 50.9666Z" fill="black"/>
</g>
<g opacity="0.6">
<path d="M24.6868 51.7994C20.7448 51.0292 16.8383 48.0638 14.4877 43.5868C10.8409 36.6394 12.8341 29.6654 18.301 26.7955C20.9601 25.3993 23.9521 25.2306 26.7444 26.2272C24.4427 25.7833 22.0766 26.1118 19.928 27.2394C18.2189 28.1361 16.8494 29.4346 15.8883 31.0061C16.9315 33.4743 16.3921 35.3343 14.2724 36.584C14.2014 38.9345 14.7807 41.4849 16.1169 44.0307C18.1434 47.8907 21.3219 50.6252 24.6868 51.7994Z" fill="white"/>
</g>
<path d="M26.7347 52.6614C21.9035 52.6614 16.7691 49.3626 13.8987 43.8957C12.0911 40.4527 11.5339 36.7619 12.3299 33.5035C13.1116 30.3028 15.1222 27.7108 17.9912 26.2045C20.8607 24.6983 24.136 24.5154 27.2146 25.6891C30.3487 26.8846 33.0704 29.439 34.8776 32.882C38.6891 40.1424 37.0848 48.5196 31.3009 51.556C29.8724 52.3058 28.3195 52.6614 26.7347 52.6614ZM23.1376 26.2578C21.5772 26.2578 20.0364 26.6347 18.6105 27.3836C16.0846 28.7096 14.3133 30.9953 13.6235 33.8196C12.9048 36.7628 13.4211 40.1215 15.0778 43.2769C18.5479 49.8869 25.5481 53.0725 30.6816 50.377C35.8152 47.6819 37.1687 40.1113 33.6985 33.5008C32.0418 30.3454 29.5709 28.0131 26.7401 26.9335C25.557 26.482 24.3415 26.2578 23.1376 26.2578Z" fill="black"/>
<path d="M50.713 33.4323C50.6478 34.6873 49.6099 35.0238 48.3554 34.9585C47.1004 34.8933 46.1038 34.4502 46.169 33.1957C46.2343 31.9407 47.3046 30.9765 48.5596 31.0422C49.8145 31.1075 50.7787 32.1778 50.713 33.4328V33.4323Z" fill="#EA34E2"/>
<g opacity="0.3">
<path d="M48.355 34.958C47.4619 34.9105 46.6965 34.6735 46.3569 34.0848C47.5671 34.1292 48.5543 33.7785 48.6187 32.5569C48.6471 31.9958 48.4731 31.4715 48.1553 31.0586C48.2871 31.0413 48.4216 31.036 48.5597 31.0431C49.8138 31.1083 50.7788 32.1791 50.7131 33.4336C50.6479 34.6877 49.6096 35.0242 48.355 34.9585V34.958Z" fill="black"/>
</g>
<path d="M48.6376 35.6323C48.5346 35.6323 48.4289 35.6296 48.3206 35.6238C45.6699 35.4853 45.468 33.8557 45.5039 33.1614C45.5448 32.377 45.8888 31.6552 46.4726 31.1296C47.0559 30.6035 47.8088 30.3398 48.5941 30.3776C50.2135 30.4619 51.4622 31.8483 51.3779 33.4677C51.3237 34.5025 50.7622 35.0214 50.3005 35.2749C49.8672 35.5129 49.3088 35.6327 48.6376 35.6327V35.6323ZM48.4391 31.7049C48.0409 31.7049 47.6623 31.8501 47.3639 32.1186C47.0448 32.4063 46.8565 32.8009 46.8339 33.2302C46.8104 33.6804 46.9786 33.8593 47.146 33.9756C47.4043 34.1545 47.8345 34.2646 48.3899 34.2934C49.9995 34.3795 50.0315 33.7159 50.0479 33.3976C50.0941 32.5115 49.4109 31.7528 48.5248 31.7067C48.4959 31.7053 48.4675 31.7045 48.4391 31.7045V31.7049Z" fill="black"/>
<path d="M59.9842 18.6737C59.5758 26.5085 54.2452 32.5991 48.0782 32.2777C41.9113 31.9563 37.2434 25.344 37.6518 17.5093C38.0602 9.67448 43.3332 4.69189 49.4997 5.01374C55.6666 5.33514 60.3922 10.8389 59.9838 18.6741L59.9842 18.6737Z" fill="#EA34E2"/>
<g opacity="0.3">
<path d="M48.0776 32.2775C42.7275 31.9987 38.5027 26.9833 37.7476 20.5393C39.1659 24.3388 42.1486 27.0197 45.724 27.2052C50.9591 27.4778 55.4814 22.3097 55.8285 15.661C56.0847 10.7624 53.9747 6.93709 50.7531 5.1543C56.2937 6.10385 60.3645 11.379 59.9845 18.6744C59.5765 26.5083 54.2455 32.6002 48.0776 32.2775Z" fill="black"/>
</g>
<g opacity="0.6">
<path d="M42.2317 29.7757C39.2348 27.1015 37.3881 22.558 37.6513 17.5083C38.0602 9.67267 43.3335 4.69231 49.4996 5.01371C52.4988 5.16997 55.1583 6.5519 57.0507 8.83366C55.2977 7.27726 53.0954 6.35257 50.672 6.22561C48.7445 6.12484 46.904 6.54257 45.2757 7.40334C44.9135 10.0584 43.5005 11.3827 41.0398 11.3756C39.7791 13.3608 38.976 15.8498 38.826 18.7211C38.5991 23.0747 39.9371 27.0487 42.2317 29.7752V29.7757Z" fill="white"/>
</g>
<path d="M48.5501 32.9553C48.3819 32.9553 48.2127 32.9509 48.0436 32.942C44.8527 32.7755 41.945 31.054 39.8555 28.0944C37.8005 25.1836 36.7817 21.412 36.9868 17.474C37.1893 13.5905 38.5934 10.1324 40.9408 7.7361C43.2466 5.38242 46.2985 4.17895 49.5347 4.34764C52.7709 4.51633 55.6813 6.03055 57.7295 8.61107C59.8146 11.2382 60.8516 14.8242 60.6492 18.7072C60.4437 22.6452 59.0382 26.2907 56.6917 28.972C54.4321 31.5539 51.5581 32.9549 48.5501 32.9549V32.9553ZM48.919 5.66342C43.1014 5.66342 38.6808 10.567 38.3173 17.5432C38.1273 21.1838 39.0599 24.6584 40.9435 27.3264C42.7924 29.9455 45.3388 31.4677 48.1133 31.612C50.8869 31.7554 53.5784 30.508 55.6897 28.0953C57.8405 25.6377 59.1297 22.279 59.3192 18.6384C59.5048 15.0795 58.5699 11.8126 56.6863 9.43943C54.8791 7.1621 52.3146 5.82634 49.4655 5.67763C49.2826 5.66831 49.0997 5.66342 48.919 5.66342Z" fill="black"/>
<path d="M77.1331 33.8028C76.0353 34.4141 75.1989 33.7144 74.5872 32.6166C73.9759 31.5188 73.821 30.4392 74.9188 29.8279C76.0166 29.2166 77.4021 29.6108 78.0134 30.7082C78.6247 31.806 78.2305 33.1915 77.1331 33.8028Z" fill="#F2C819"/>
<g opacity="0.3">
<path d="M74.5879 32.6163C74.1533 31.8345 73.9478 31.0603 74.2656 30.4593C74.8711 31.5078 75.6933 32.1577 76.7618 31.5628C77.2523 31.2885 77.6035 30.8628 77.7846 30.374C77.8694 30.4761 77.9453 30.5876 78.0128 30.7083C78.6241 31.8057 78.2298 33.192 77.1325 33.8029C76.0351 34.4142 75.1987 33.7132 74.5875 32.6158L74.5879 32.6163Z" fill="black"/>
</g>
<path d="M76.3428 34.6965C75.9419 34.6965 75.6063 34.5731 75.3537 34.4324C74.8561 34.1549 74.4024 33.6529 74.006 32.9408C72.7141 30.6218 73.9873 29.5843 74.595 29.246C76.012 28.4572 77.8064 28.9677 78.5952 30.3838C78.9774 31.0701 79.0698 31.8638 78.8549 32.6198C78.6401 33.3754 78.1438 34.0022 77.4575 34.3844C77.0486 34.6122 76.6735 34.6965 76.3428 34.6965ZM76.0236 30.2062C75.759 30.2062 75.4904 30.2715 75.2432 30.4096C74.8494 30.6289 74.7868 30.8664 74.7775 31.0701C74.7633 31.384 74.8987 31.8066 75.169 32.2922C75.9521 33.6981 76.5305 33.3754 76.8089 33.2205C77.584 32.7885 77.8632 31.8066 77.4317 31.0315C77.1378 30.5037 76.5887 30.2058 76.0231 30.2058L76.0236 30.2062Z" fill="black"/>
<path d="M94.5626 33.8118C87.7089 37.6295 79.7165 36.3515 76.7112 30.9569C73.7063 25.5624 76.8261 18.0938 83.6799 14.2761C90.5336 10.4584 97.5564 12.2767 100.562 17.6712C103.567 23.0658 101.416 29.9941 94.5626 33.8122V33.8118Z" fill="#F2C819"/>
<g opacity="0.3">
<path d="M76.7112 30.9564C74.104 26.2761 76.107 20.0319 81.1641 15.9678C78.6995 19.1884 78.0136 23.1398 79.7565 26.2672C82.3081 30.8467 89.089 31.9308 94.9058 28.6915C99.1918 26.3049 101.311 22.4846 101.108 18.8084C103.249 24.0063 100.944 30.2581 94.5622 33.8134C87.7098 37.6312 79.7161 36.3531 76.7112 30.9568V30.9564Z" fill="black"/>
</g>
<g opacity="0.6">
<path d="M75.7231 24.6747C76.3952 20.715 79.263 16.7361 83.6805 14.275C90.5355 10.4568 97.5566 12.2769 100.561 17.6705C102.023 20.2941 102.266 23.2813 101.338 26.0971C101.725 23.7851 101.338 21.4279 100.158 19.3077C99.2186 17.6213 97.8869 16.2846 96.2918 15.3626C93.8503 16.4666 91.9774 15.9734 90.6758 13.8857C88.3243 13.8728 85.7891 14.5151 83.2769 15.9144C79.4685 18.0359 76.8134 21.2814 75.7231 24.6743V24.6747Z" fill="white"/>
</g>
<path d="M86.4224 36.6686C82.0174 36.6686 78.0847 34.7895 76.1301 31.2807C74.575 28.4893 74.488 25.1111 75.8846 21.7684C77.2581 18.4802 79.9119 15.6129 83.3563 13.6943C86.7532 11.8019 90.4293 11.1533 93.7063 11.8684C96.9252 12.5707 99.5665 14.516 101.144 17.3473C102.721 20.1782 102.985 23.4486 101.887 26.5552C100.77 29.7181 98.284 32.5019 94.8867 34.3944C92.1273 35.9312 89.1819 36.6695 86.422 36.6695L86.4224 36.6686ZM91.0468 12.9068C88.7863 12.9068 86.3656 13.5425 84.0044 14.8578C80.8192 16.6317 78.3723 19.2686 77.1134 22.282C75.8775 25.2403 75.9414 28.2061 77.2936 30.633C80.1152 35.6982 87.7165 36.8635 94.239 33.2304C97.3522 31.496 99.6229 28.9679 100.632 26.1112C101.6 23.37 101.369 20.4881 99.9807 17.9955C98.1282 14.67 94.8103 12.9072 91.0468 12.9072V12.9068Z" fill="black"/>
<path d="M89.451 51.2429C88.6213 52.1867 87.5989 51.8071 86.6551 50.9779C85.7114 50.1482 85.204 49.1826 86.0337 48.2389C86.8633 47.2951 88.3008 47.2028 89.2445 48.032C90.1883 48.8617 90.2807 50.2991 89.4514 51.2429H89.451Z" fill="#34ED20"/>
<g opacity="0.3">
<path d="M86.6551 50.9778C85.9839 50.3865 85.5306 49.726 85.6292 49.0534C86.5508 49.8387 87.5434 50.1761 88.3509 49.2576C88.7211 48.835 88.9098 48.3161 88.9164 47.7949C89.0305 47.8628 89.1393 47.9423 89.2431 48.0333C90.1865 48.8626 90.2793 50.3009 89.45 51.2442C88.6208 52.1875 87.598 51.8071 86.6546 50.9783L86.6551 50.9778Z" fill="black"/>
</g>
<path d="M88.346 52.3564C87.7876 52.3564 87.1021 52.1092 86.2889 51.3945C84.4395 49.7688 85.0739 48.4903 85.6168 47.8724C86.1158 47.3046 86.8061 46.9655 87.5607 46.9166C88.3154 46.8705 89.043 47.1164 89.6107 47.6154C90.7827 48.6457 90.8981 50.4374 89.8682 51.6093C89.5641 51.9551 89.0576 52.3564 88.346 52.3564ZM87.7449 48.0207C87.7077 48.0207 87.6699 48.022 87.6322 48.0242C87.1736 48.0535 86.7541 48.2599 86.4509 48.6053C86.2352 48.8508 85.73 49.4252 87.0218 50.5608C88.3141 51.6963 88.8192 51.1223 89.0345 50.8764C89.3377 50.5315 89.4887 50.0889 89.4594 49.6299C89.4301 49.1713 89.2236 48.7518 88.8783 48.4486C88.5618 48.1703 88.1627 48.0202 87.7449 48.0202V48.0207Z" fill="black"/>
<path d="M105.877 45.4145C100.698 51.3071 92.739 52.7791 88.1009 48.7022C83.4628 44.6252 83.9014 36.5431 89.0811 30.6505C94.2608 24.7579 101.487 24.1195 106.125 28.1965C110.763 32.2735 111.057 39.5219 105.877 45.4145Z" fill="#34ED20"/>
<g opacity="0.3">
<path d="M88.1003 48.7014C84.0761 45.1646 83.8728 38.6101 87.2768 33.0868C86.0329 36.9467 86.7099 40.8999 89.3996 43.2629C93.3372 46.7232 100.09 45.474 104.486 40.4737C107.725 36.7896 108.442 32.4804 107.021 29.084C110.778 33.2648 110.7 39.9277 105.877 45.415C100.699 51.3072 92.7384 52.7797 88.1003 48.7014Z" fill="black"/>
</g>
<g opacity="0.6">
<path d="M85.0655 43.1139C84.373 39.1577 85.7425 34.4481 89.0808 30.6499C94.2614 24.7568 101.487 24.1203 106.124 28.1968C108.38 30.1794 109.609 32.9126 109.678 35.8767C109.269 33.5687 108.114 31.4769 106.292 29.8748C104.843 28.6003 103.14 27.7866 101.329 27.4519C99.3975 29.3097 97.4678 29.4726 95.5421 27.9407C93.322 28.7162 91.1481 30.1705 89.2499 32.3297C86.372 35.6041 84.9572 39.551 85.0659 43.1135L85.0655 43.1139Z" fill="white"/>
</g>
<path d="M94.5143 51.6771C91.889 51.6771 89.5122 50.8301 87.6611 49.2027C85.2612 47.0936 84.048 43.9395 84.2442 40.3216C84.4373 36.7635 85.9777 33.1731 88.5809 30.2117C91.1481 27.2907 94.3945 25.4488 97.7221 25.0249C100.99 24.6076 104.131 25.5572 106.565 27.6969C108.999 29.8361 110.342 32.829 110.349 36.1234C110.355 39.4777 108.944 42.9336 106.377 45.8542C103.774 48.816 100.411 50.8039 96.9066 51.452C96.0925 51.6025 95.2921 51.6771 94.5139 51.6771H94.5143ZM99.215 26.2612C98.7773 26.2612 98.3352 26.2892 97.8899 26.346C94.8846 26.7291 91.9338 28.4142 89.581 31.0906C87.1741 33.8288 85.7513 37.1329 85.5742 40.3939C85.4002 43.5955 86.4536 46.3687 88.5405 48.2025C90.6269 50.0364 93.5133 50.7253 96.6651 50.1425C99.8765 49.5485 102.971 47.7133 105.378 44.9752C107.73 42.2984 109.023 39.1558 109.017 36.1261C109.012 33.2188 107.828 30.5806 105.686 28.697C103.874 27.1042 101.614 26.2612 99.2155 26.2612H99.215Z" fill="black"/>
<path d="M70.9901 35.4405C70.4965 36.5961 69.4066 36.5548 68.2511 36.0616C67.0956 35.5679 66.312 34.8093 66.8057 33.6537C67.2993 32.4982 68.636 31.9615 69.7915 32.4547C70.947 32.9484 71.4837 34.285 70.9905 35.4405H70.9901Z" fill="#2B91ED"/>
<g opacity="0.3">
<path d="M68.2513 36.0619C67.4291 35.7098 66.7921 35.2237 66.6758 34.5539C67.7967 35.012 68.8443 35.0226 69.3251 33.8982C69.5453 33.381 69.5617 32.8292 69.4059 32.332C69.5355 32.3609 69.6638 32.4026 69.7908 32.4563C70.9459 32.9495 71.483 34.2871 70.9898 35.4422C70.4966 36.5972 69.4059 36.5555 68.2508 36.0619H68.2513Z" fill="black"/>
</g>
<path d="M69.6023 37.0556C69.1233 37.0556 68.583 36.9282 67.9899 36.6747C67.2402 36.3546 66.6937 35.956 66.3656 35.4903C66.0624 35.0597 65.7863 34.3459 66.1934 33.3932C66.5019 32.6705 67.0733 32.1116 67.8022 31.8186C68.5315 31.5261 69.3306 31.535 70.0529 31.8435C70.7751 32.152 71.3345 32.7233 71.627 33.4523C71.9196 34.1812 71.9111 34.9802 71.6026 35.7029C71.1955 36.656 70.4897 36.9499 69.969 37.0289C69.8513 37.0471 69.7288 37.056 69.6023 37.056V37.0556ZM68.8982 32.9377C68.6953 32.9377 68.4925 32.9768 68.2985 33.0545C67.8998 33.2148 67.5869 33.5206 67.4182 33.9157C67.2411 34.3303 67.3374 34.5563 67.4546 34.7232C67.6353 34.9802 68.0015 35.2315 68.5129 35.4499C69.0247 35.6683 69.4589 35.758 69.7696 35.7118C69.9712 35.6812 70.2011 35.5942 70.3783 35.1796C70.5469 34.784 70.5518 34.3468 70.3916 33.9481C70.2313 33.5495 69.9255 33.2365 69.5304 33.0678C69.327 32.9813 69.1126 32.9377 68.8982 32.9377Z" fill="black"/>
<path d="M84.7757 24.7764C81.6944 31.9915 74.593 35.8749 68.9139 33.4498C63.2348 31.0246 61.1284 23.2098 64.2097 15.9943C67.2909 8.77921 73.9564 5.9168 79.6355 8.34195C85.3146 10.7671 87.8565 17.5613 84.7757 24.7768V24.7764Z" fill="#2B91ED"/>
<g opacity="0.3">
<path d="M68.9134 33.4488C63.9863 31.3451 61.7467 25.1817 63.2565 18.8718C63.2801 22.927 65.1574 26.4713 68.45 27.8763C73.271 29.9348 79.2963 26.6395 81.9115 20.5169C83.8385 16.0058 83.1749 11.6878 80.7639 8.90527C85.6391 11.7042 87.6447 18.0585 84.7761 24.7768C81.6962 31.991 74.5934 35.8753 68.9134 33.4484V33.4488Z" fill="black"/>
</g>
<g opacity="0.6">
<path d="M64.286 29.0878C62.3927 25.5453 62.2235 20.644 64.2092 15.9934C67.2909 8.77749 73.9564 5.9173 79.6346 8.342C82.3967 9.5215 84.4174 11.734 85.4091 14.5285C84.2993 12.4638 82.5498 10.8373 80.3182 9.88374C78.5434 9.12552 76.6719 8.88403 74.8465 9.13174C73.5919 11.4996 71.8096 12.2565 69.5016 11.4028C67.6345 12.8327 66.0235 14.893 64.8942 17.537C63.1824 21.5465 63.0701 25.7375 64.2855 29.0878H64.286Z" fill="white"/>
</g>
<path d="M72.4914 34.841C71.1672 34.841 69.8727 34.5822 68.6524 34.061C65.7141 32.806 63.5766 30.1887 62.6337 26.6905C61.7063 23.2501 62.0486 19.3583 63.5974 15.7319C65.1245 12.1556 67.6336 9.39222 70.6625 7.95081C73.6372 6.5347 76.9169 6.45568 79.8974 7.7284C82.8774 9.00113 85.0886 11.4249 86.1229 14.5528C87.1764 17.7375 86.9153 21.4611 85.3883 25.0369C83.8399 28.6633 81.2651 31.6021 78.1386 33.3116C76.2799 34.3282 74.3559 34.841 72.4914 34.841ZM75.5412 8.16167C74.0838 8.16167 72.6219 8.49284 71.2347 9.15339C68.4992 10.4554 66.2219 12.9778 64.8222 16.2553C63.3906 19.6082 63.0701 23.1911 63.9197 26.3443C64.7539 29.4402 66.6206 31.7455 69.1753 32.8366C71.7301 33.9278 74.6866 33.6814 77.4993 32.1432C80.3648 30.5762 82.7314 27.8669 84.163 24.514C86.9913 17.8907 84.9772 11.3459 79.3736 8.95319C78.1368 8.42536 76.8405 8.16167 75.5407 8.16167H75.5412Z" fill="black"/>
<path d="M73.9235 48.7608C73.1408 49.744 72.1012 49.4147 71.1179 48.632C70.1346 47.8494 69.581 46.9096 70.3632 45.9268C71.1458 44.9435 72.5771 44.781 73.5603 45.5636C74.5436 46.3463 74.7061 47.7775 73.9235 48.7608Z" fill="#EF2929"/>
<g opacity="0.3">
<path d="M71.1179 48.6322C70.4187 48.0747 69.9339 47.4368 69.9996 46.7602C70.9585 47.4993 71.9662 47.7879 72.728 46.8312C73.0773 46.3913 73.2402 45.8635 73.2216 45.3428C73.3388 45.4049 73.4515 45.4791 73.5594 45.5647C74.5418 46.3469 74.7047 47.779 73.9225 48.7614C73.1404 49.7438 72.0998 49.414 71.1174 48.6318L71.1179 48.6322Z" fill="black"/>
</g>
<path d="M72.7764 49.924C72.6956 49.924 72.6134 49.9191 72.5304 49.9093C71.9853 49.8445 71.3935 49.5604 70.7725 49.0659C70.151 48.5713 69.7417 48.0582 69.5566 47.5419C69.3151 46.8689 69.4438 46.191 69.9295 45.5811C70.9012 44.3603 72.6854 44.1574 73.9061 45.1292C74.4974 45.6002 74.8703 46.2727 74.9556 47.0238C75.0408 47.7749 74.8286 48.5141 74.3576 49.1054C73.9288 49.6439 73.3863 49.9235 72.7764 49.9235V49.924ZM72.1451 45.6237C71.6386 45.6237 71.137 45.8456 70.7974 46.2718C70.4808 46.6691 70.5261 46.9586 70.6007 47.1668C70.7139 47.4819 71.0122 47.8384 71.4632 48.1975C71.9143 48.5571 72.3284 48.7675 72.6609 48.8075C72.8798 48.8324 73.1723 48.8124 73.4889 48.4151C73.7752 48.0555 73.9044 47.6062 73.8524 47.1494C73.8005 46.6931 73.5741 46.2838 73.2145 45.9979C72.8984 45.7467 72.5207 45.6241 72.1451 45.6241V45.6237Z" fill="black"/>
<path d="M90.0457 42.1393C85.1594 48.2774 77.282 50.1357 72.4504 46.29C67.6187 42.4443 67.6631 34.3503 72.5494 28.2122C77.4356 22.0741 84.6218 21.0841 89.4535 24.9298C94.2851 28.7755 94.9319 36.0012 90.0457 42.1393Z" fill="#EF2929"/>
<g opacity="0.3">
<path d="M72.4505 46.2883C68.259 42.9518 67.7361 36.4151 70.8666 30.7328C69.8127 34.6491 70.6815 38.5641 73.4831 40.7935C77.5849 44.0581 84.2682 42.4808 88.4153 37.2723C91.4713 33.4346 91.9773 29.0957 90.3916 25.7725C94.3488 29.7651 94.5951 36.4239 90.0458 42.1399C85.1609 48.2775 77.2822 50.1367 72.4505 46.2888V46.2883Z" fill="black"/>
</g>
<g opacity="0.6">
<path d="M69.1468 40.8562C68.262 36.9381 69.4003 32.1677 72.5494 28.2115C77.4366 22.073 84.6219 21.0848 89.4527 24.93C91.8023 26.8003 93.1634 29.4705 93.3774 32.4274C92.8553 30.1421 91.6008 28.1094 89.7026 26.5979C88.1928 25.3953 86.4522 24.6659 84.6268 24.42C82.7889 26.3701 80.869 26.6263 78.8709 25.1906C76.6912 26.0736 74.591 27.6322 72.8003 29.8815C70.0852 33.2926 68.8644 37.3039 69.1468 40.8566V40.8562Z" fill="white"/>
</g>
<path d="M78.4177 48.9622C76.0214 48.9622 73.8205 48.2311 72.0363 46.8105C69.5366 44.8208 68.1707 41.7298 68.1906 38.107C68.2102 34.544 69.5735 30.8826 72.0292 27.7973C74.4508 24.7547 77.6036 22.757 80.9064 22.171C84.1501 21.5953 87.3335 22.3903 89.8687 24.4089C92.4044 26.4269 93.8924 29.3506 94.0593 32.641C94.2294 35.9908 92.989 39.5115 90.5674 42.5537C88.1117 45.639 84.8493 47.7885 81.3814 48.6066C80.3719 48.8446 79.3793 48.9622 78.4182 48.9622H78.4177ZM82.9533 23.3208C82.354 23.3208 81.748 23.3741 81.1385 23.4819C78.1554 24.0111 75.2903 25.8383 73.0707 28.6261C70.8 31.4783 69.5397 34.8481 69.522 38.1136C69.5042 41.3196 70.6917 44.0382 72.8651 45.7682C75.039 47.4986 77.9547 48.0459 81.0746 47.3099C84.2531 46.5601 87.254 44.5762 89.5247 41.724C94.0101 36.0889 93.8058 29.2449 89.0386 25.4499C87.2815 24.0515 85.1685 23.3204 82.9528 23.3204L82.9533 23.3208Z" fill="black"/>
<path d="M33.7929 33.0786C34.5378 34.0903 33.9491 35.0088 32.9374 35.7537C31.9257 36.4986 30.8741 36.7885 30.1292 35.7768C29.3843 34.7651 29.6005 33.341 30.6122 32.5956C31.6239 31.8507 33.048 32.0665 33.7933 33.0786H33.7929Z" fill="#EF2929"/>
<g opacity="0.3">
<path d="M32.9372 35.7527C32.2163 36.2823 31.4745 36.5842 30.8383 36.3445C31.8021 35.6115 32.3432 34.7139 31.6183 33.7289C31.2845 33.277 30.8175 32.9822 30.3101 32.8641C30.4006 32.7673 30.5018 32.6777 30.6128 32.5955C31.6241 31.8506 33.0491 32.0668 33.794 33.0781C34.5389 34.0893 33.9489 35.0078 32.9376 35.7527H32.9372Z" fill="black"/>
</g>
<path d="M31.3108 37.0912C30.4088 37.0912 29.8499 36.5198 29.5933 36.1714C28.6318 34.8658 28.9114 33.0209 30.2175 32.0593C31.5235 31.0973 33.368 31.3775 34.3295 32.6835C34.9439 33.5176 34.8387 34.2749 34.6425 34.7641C34.4298 35.2928 33.9895 35.806 33.3329 36.2899C32.5276 36.8825 31.8564 37.0916 31.3113 37.0916L31.3108 37.0912ZM31.959 32.8184C31.6278 32.8184 31.2935 32.9201 31.0068 33.1314C30.2925 33.6574 30.1393 34.6669 30.6654 35.3812C30.8545 35.6373 31.2469 36.1709 32.5427 35.2165C32.9906 34.8867 33.289 34.5586 33.4062 34.2669C33.4821 34.0778 33.5238 33.8355 33.2566 33.4728C32.9418 33.0448 32.4535 32.818 31.959 32.818V32.8184Z" fill="black"/>
<path d="M31.6023 15.7872C36.2546 22.1047 35.9954 30.1942 31.023 33.8562C26.0506 37.5181 18.2483 35.3655 13.596 29.048C8.94365 22.7306 9.86124 15.5346 14.8336 11.8727C19.806 8.21077 26.95 9.46974 31.6023 15.7872Z" fill="#EF2929"/>
<g opacity="0.3">
<path d="M31.022 33.8558C26.7085 37.0329 20.2614 35.8334 15.5913 31.3298C19.0974 33.3683 23.1034 33.5499 25.9857 31.4266C30.2066 28.3178 30.4263 21.4539 26.4785 16.0927C23.5704 12.1422 19.5129 10.5223 15.8914 11.1869C20.7777 8.40747 27.2705 9.90527 31.6027 15.7872C36.255 22.1034 35.9958 30.1943 31.0216 33.8562L31.022 33.8558Z" fill="black"/>
</g>
<g opacity="0.6">
<path d="M24.9159 35.6295C20.9028 35.4621 16.5937 33.1196 13.5954 29.0483C8.94314 22.73 9.86205 15.5353 14.834 11.8739C17.252 10.0929 20.1846 9.47492 23.0954 10.0391C20.7528 9.94725 18.4635 10.6287 16.5093 12.0674C14.9547 13.2114 13.797 14.7017 13.0836 16.4001C14.4868 18.6828 14.2342 20.6027 12.3272 22.1578C12.6113 24.4924 13.5684 26.9259 15.273 29.2414C17.8584 32.7515 21.4125 34.976 24.9163 35.6295H24.9159Z" fill="white"/>
</g>
<path d="M25.3988 36.2977C21.0404 36.2977 16.3011 33.8437 13.0595 29.4427C10.7538 26.3112 9.64666 22.747 9.94187 19.4056C10.2322 16.1237 11.829 13.2577 14.4384 11.336C17.0477 9.41423 20.2582 8.73991 23.4784 9.43643C26.7568 10.1458 29.8322 12.2607 32.138 15.3916C37.0007 21.9945 36.6771 30.5178 31.417 34.3915C29.6631 35.6833 27.5785 36.2973 25.3979 36.2973L25.3988 36.2977ZM21.0137 10.5018C18.934 10.5018 16.9345 11.1522 15.2285 12.4085C10.3223 16.0216 9.86152 22.8531 14.132 28.6525C18.5593 34.6636 25.959 36.7572 30.6282 33.319C35.2969 29.8808 35.4936 22.193 31.0664 16.1814C28.9533 13.3119 26.1583 11.3786 23.1974 10.738C22.4658 10.58 21.7351 10.5014 21.0137 10.5014V10.5018Z" fill="black"/>
<path d="M38.9472 41.2761C38.9445 42.5324 37.9248 42.9204 36.6685 42.9177C35.4122 42.915 34.3943 42.5222 34.397 41.2659C34.3996 40.0096 35.4207 38.993 36.6774 38.9961C37.9342 38.9992 38.9503 40.0198 38.9472 41.2765V41.2761Z" fill="#2B91ED"/>
<g opacity="0.3">
<path d="M36.6678 42.9178C35.7733 42.9151 34.9973 42.7163 34.6284 42.1449C35.839 42.1289 36.8081 41.7294 36.8112 40.5064C36.8116 39.9444 36.6114 39.4299 36.2736 39.033C36.4041 39.0091 36.5386 38.9971 36.6767 38.9971C37.9325 39.0002 38.9496 40.0212 38.9469 41.2771C38.9438 42.5329 37.9237 42.9205 36.6678 42.9178Z" fill="black"/>
</g>
<path d="M36.6816 43.4728H36.6669C34.2045 43.467 33.84 42.0869 33.8418 41.2648C33.8436 40.5088 34.1397 39.7989 34.675 39.2658C35.2091 38.734 35.918 38.4414 36.6714 38.4414H36.6785C38.2389 38.445 39.5054 39.7172 39.5018 41.2781C39.5 42.0984 39.1302 43.4733 36.6816 43.4733V43.4728ZM36.6718 39.5512C36.2137 39.5512 35.7831 39.7288 35.4586 40.052C35.1327 40.376 34.9529 40.808 34.9521 41.2674C34.9512 41.5941 34.9494 42.359 36.6696 42.363H36.6825C38.3898 42.363 38.3916 41.6008 38.392 41.275C38.3942 40.3263 37.6245 39.553 36.6758 39.5508H36.6714L36.6718 39.5512Z" fill="black"/>
<path d="M47.4715 26.0742C47.4538 33.9196 42.433 40.2681 36.258 40.2544C30.0826 40.2402 25.0912 33.869 25.1089 26.0236C25.1267 18.1781 30.1448 12.9394 36.3202 12.9532C42.4956 12.9674 47.4897 18.2287 47.4715 26.0742Z" fill="#2B91ED"/>
<g opacity="0.3">
<path d="M36.2573 40.2535C30.9001 40.2415 26.4306 35.4427 25.3555 29.0444C26.9611 32.7685 30.0735 35.2975 33.6537 35.3051C38.896 35.3166 43.155 29.93 43.171 23.2721C43.1829 18.3663 40.8852 14.6511 37.5789 13.0312C43.1599 13.7033 47.4881 18.7694 47.4721 26.0746C47.4548 33.9191 42.4336 40.269 36.2573 40.2535Z" fill="black"/>
</g>
<g opacity="0.6">
<path d="M30.2939 38.0473C27.1674 35.5258 25.0969 31.0795 25.1084 26.0232C25.1266 18.1769 30.1452 12.9399 36.3197 12.9541C39.3228 12.9608 42.0476 14.2087 44.0519 16.3932C42.2234 14.926 39.9781 14.1119 37.5516 14.1061C35.6214 14.1012 33.8044 14.61 32.2205 15.5511C31.991 18.2208 30.6455 19.6139 28.1875 19.7293C27.0275 21.7749 26.3492 24.3008 26.3421 27.1761C26.3323 31.5358 27.8665 35.4379 30.2939 38.0468V38.0473Z" fill="white"/>
</g>
<path d="M36.2788 40.9201H36.2566C33.0613 40.913 30.0715 39.3384 27.8372 36.4862C25.6398 33.6815 24.4345 29.965 24.4434 26.0216C24.4523 22.1333 25.6824 18.6095 27.9073 16.0991C30.087 13.6402 33.0648 12.2871 36.2952 12.2871H36.3214C39.5621 12.2947 42.5443 13.6619 44.7182 16.1372C46.9316 18.6574 48.1457 22.187 48.1369 26.0753C48.128 30.0183 46.9059 33.7294 44.6956 36.5244C42.4538 39.3593 39.4648 40.9197 36.2784 40.9197L36.2788 40.9201ZM36.2957 13.6189C33.4515 13.6189 30.8275 14.8126 28.9039 16.9825C26.8943 19.2496 25.7832 22.4609 25.7752 26.0247C25.7667 29.6702 26.8712 33.0942 28.8853 35.6649C30.8625 38.1886 33.4812 39.5821 36.2597 39.5883H36.2788C39.0498 39.5883 41.6676 38.2077 43.6519 35.6987C45.6775 33.1368 46.798 29.7186 46.806 26.0727C46.8224 18.8705 42.4121 13.6331 36.3188 13.6189H36.2957Z" fill="black"/>
<path d="M65.9198 41.3552C65.9172 42.6115 64.8975 42.9995 63.6412 42.9968C62.3849 42.9941 61.367 42.6013 61.3696 41.345C61.3723 40.0887 62.3933 39.0721 63.6501 39.0752C64.9064 39.0779 65.9229 40.0989 65.9198 41.3556V41.3552Z" fill="#34ED20"/>
<g opacity="0.3">
<path d="M63.6409 42.9959C62.7464 42.9933 61.9705 42.7944 61.6016 42.223C62.8121 42.2071 63.7812 41.8075 63.7843 40.5845C63.7848 40.0225 63.5846 39.508 63.2467 39.1112C63.3772 39.0872 63.5118 39.0752 63.6498 39.0752C64.9057 39.0783 65.9227 40.0993 65.92 41.3552C65.9169 42.611 64.8968 42.9986 63.6409 42.9959Z" fill="black"/>
</g>
<path d="M63.6551 43.5509H63.6396C61.1776 43.5456 60.8127 42.165 60.8145 41.3429C60.818 39.7847 62.0867 38.5195 63.6445 38.5195H63.6507C65.2111 38.5231 66.4776 39.7958 66.4745 41.3562C66.4727 42.1357 66.15 42.7461 65.5409 43.1208C65.0766 43.4067 64.4418 43.5514 63.6547 43.5514L63.6551 43.5509ZM63.6445 39.6293C62.6976 39.6293 61.9265 40.3982 61.9243 41.3455C61.9234 41.6723 61.9216 42.4371 63.6418 42.4411H63.6547C64.2256 42.4411 64.6761 42.3492 64.9594 42.1748C65.1476 42.0589 65.3633 41.8609 65.3647 41.3531C65.3669 40.4049 64.5967 39.6316 63.6485 39.6289H63.6445V39.6293Z" fill="black"/>
<path d="M74.4447 26.1523C74.4269 33.9977 69.4061 40.3463 63.2312 40.3325C57.0558 40.3183 52.0643 33.9471 52.0821 26.1017C52.0998 18.2562 57.1179 13.0175 63.2933 13.0313C69.4687 13.0455 74.4629 18.3069 74.4447 26.1523Z" fill="#34ED20"/>
<g opacity="0.3">
<path d="M63.23 40.3326C57.8727 40.3206 53.4033 35.5218 52.3281 29.1235C53.9338 32.8476 57.0461 35.3766 60.6264 35.3842C65.8686 35.3957 70.1276 30.0091 70.1436 23.3512C70.1556 18.4454 67.8579 14.7302 64.5515 13.1104C70.1325 13.7824 74.4608 18.8485 74.4448 26.1537C74.4275 33.9982 69.4063 40.3481 63.23 40.3326Z" fill="black"/>
</g>
<g opacity="0.6">
<path d="M57.2675 38.1254C54.141 35.6039 52.0705 31.1576 52.0821 26.1013C52.1003 18.255 57.1188 13.018 63.2933 13.0323C66.2965 13.0389 69.0213 14.2868 71.0256 16.4713C69.1971 15.0042 66.9517 14.19 64.5252 14.1842C62.595 14.1793 60.7781 14.6881 59.1942 15.6292C58.9647 18.2989 57.6191 19.692 55.1611 19.8074C54.0012 21.853 53.3228 24.3789 53.3157 27.2542C53.306 31.614 54.8402 35.516 57.2675 38.125V38.1254Z" fill="white"/>
</g>
<path d="M63.252 40.9982H63.2298C56.697 40.9831 51.3979 34.2999 51.4166 26.0997C51.4254 22.2114 52.6555 18.6876 54.8805 16.1772C57.0601 13.7183 60.038 12.3652 63.2684 12.3652H63.295C66.5357 12.3728 69.5179 13.7401 71.6918 16.2154C73.9052 18.7355 75.1193 22.2651 75.1105 26.1539C75.1016 30.0968 73.8795 33.808 71.6692 36.6029C69.4274 39.4378 66.4384 40.9982 63.252 40.9982ZM63.2688 13.697C60.4246 13.697 57.8006 14.8907 55.8771 17.0606C53.8674 19.3277 52.7563 22.539 52.7483 26.1029C52.7315 33.5683 57.4348 39.6531 63.2329 39.6665H63.252C66.0229 39.6665 68.6407 38.2859 70.6251 35.7768C72.6507 33.2149 73.7711 29.7967 73.7791 26.1508C73.7871 22.587 72.6906 19.3708 70.6912 17.0943C68.7726 14.9102 66.145 13.7037 63.2919 13.697H63.2688Z" fill="black"/>
<path d="M53.3681 49.9948C53.3654 51.2511 52.3457 51.6391 51.0894 51.6365C49.8331 51.6338 48.8152 51.2409 48.8179 49.9846C48.8205 48.7283 49.8416 47.7117 51.0983 47.7149C52.3546 47.7175 53.3712 48.7385 53.3681 49.9953V49.9948Z" fill="#F2C819"/>
<g opacity="0.3">
<path d="M51.0892 51.6365C50.1947 51.6339 49.4187 51.435 49.0498 50.8637C50.2604 50.8477 51.2295 50.4482 51.2326 49.2252C51.233 48.6632 51.0328 48.1486 50.695 47.7518C50.8255 47.7278 50.96 47.7158 51.0981 47.7158C52.3539 47.7189 53.3709 48.7399 53.3683 49.9958C53.3652 51.2517 52.345 51.6392 51.0892 51.6365Z" fill="black"/>
</g>
<path d="M51.1025 52.1916H51.0878C50.2936 52.1898 49.6544 52.042 49.1883 51.7521C48.581 51.3748 48.2609 50.763 48.2627 49.9835C48.2663 48.4253 49.5354 47.1602 51.0927 47.1602H51.0989C51.8549 47.1619 52.5648 47.4576 53.0984 47.9934C53.6315 48.5292 53.9245 49.2404 53.9227 49.9964C53.9209 50.8167 53.5516 52.1916 51.1025 52.1916ZM51.0927 48.27C50.1458 48.27 49.3747 49.0388 49.3725 49.9862C49.3712 50.4945 49.5865 50.6933 49.7738 50.8096C50.0584 50.9863 50.5134 51.0804 51.09 51.0818H51.1029C52.8102 51.0818 52.812 50.32 52.8125 49.9937C52.8134 49.5343 52.6358 49.1019 52.3113 48.776C51.9872 48.4506 51.5557 48.2704 51.0963 48.2695H51.0923L51.0927 48.27Z" fill="black"/>
<path d="M61.8924 34.7929C61.8747 42.6384 56.8539 48.9869 50.6789 48.9731C44.5035 48.9589 39.5121 42.5877 39.5298 34.7423C39.5476 26.8969 44.5657 21.6581 50.7411 21.6719C56.9165 21.6861 61.9106 26.9475 61.8924 34.7929Z" fill="#F2C819"/>
<g opacity="0.3">
<path d="M50.6782 48.9722C45.321 48.9602 40.8515 44.1614 39.7764 37.7632C41.382 41.4872 44.4944 44.0163 48.0746 44.0238C53.3169 44.0353 57.5759 38.6488 57.5919 31.9908C57.6038 27.0851 55.3061 23.3699 51.9998 21.75C57.5808 22.4221 61.909 27.4881 61.893 34.7933C61.8757 42.6379 56.8545 48.9877 50.6782 48.9722Z" fill="black"/>
</g>
<g opacity="0.6">
<path d="M44.7148 46.766C41.5883 44.2446 39.5178 39.7982 39.5293 34.742C39.5475 26.8956 44.5661 21.6587 50.7406 21.6729C53.7437 21.6795 56.4685 22.9274 58.4728 25.1119C56.6443 23.6448 54.399 22.8306 51.9725 22.8249C50.0423 22.82 48.2253 23.3287 46.6414 24.2698C46.4119 26.9396 45.0664 28.3326 42.6084 28.448C41.4484 30.4936 40.7701 33.0195 40.763 35.8948C40.7532 40.2546 42.2874 44.1567 44.7148 46.7656V46.766Z" fill="white"/>
</g>
<path d="M50.6988 49.6389H50.677C44.1447 49.6238 38.8452 42.9405 38.8638 34.7404C38.8727 30.8521 40.1028 27.3282 42.3277 24.8178C44.5132 22.3523 47.499 21.0023 50.7423 21.0059C53.9829 21.0134 56.9652 22.3807 59.1391 24.856C61.3529 27.3762 62.567 30.9058 62.5582 34.7941C62.5395 42.9845 57.2209 49.6384 50.6988 49.6384V49.6389ZM50.7161 22.3376C47.8719 22.3376 45.2479 23.5313 43.3244 25.7012C41.3147 27.9683 40.2036 31.1797 40.1956 34.7435C40.1787 42.2094 44.8821 48.2938 50.6801 48.3071H50.6988C56.4889 48.3071 61.2095 42.2493 61.2264 34.7914C61.2428 27.5892 56.8325 22.3518 50.7392 22.3376H50.7161Z" fill="black"/>
</g>
<defs>
<clipPath id="clip0_257_2">
<rect width="113.612" height="150" fill="white"/>
</clipPath>
</defs>
</svg>
