<svg width="402" height="191" viewBox="0 0 402 191" fill="none" xmlns="http://www.w3.org/2000/svg">
<path fill-rule="evenodd" clip-rule="evenodd" d="M161.165 -426.822C225.66 -423.888 276.994 -380.399 333.119 -348.474C395.213 -313.155 474.641 -295.001 505.889 -230.741C537.98 -164.749 516.678 -86.2674 494.668 -16.2631C473.092 52.3603 444.361 125.242 382.458 161.841C322.972 197.009 249.453 167.46 180.388 169.544C111.526 171.622 36.0961 212.322 -21.1839 174.023C-78.4777 135.715 -76.5029 52.5754 -94.2037 -14.054C-110.148 -74.0716 -130.737 -133.123 -118.98 -194.1C-106.419 -259.244 -77.5871 -322.456 -26.5683 -364.838C25.4017 -408.011 93.6838 -429.892 161.165 -426.822Z" fill="#CDC1FF"/>
</svg>
